<svg width="90" height="26" viewBox="0 0 90 26" fill="none" xmlns="http://www.w3.org/2000/svg">
<g clip-path="url(#clip0_6_3309)">
<mask id="mask0_6_3309" style="mask-type:luminance" maskUnits="userSpaceOnUse" x="0" y="0" width="90" height="26">
<path d="M90 0.619843H0V25.8229H90V0.619843Z" fill="white"/>
</mask>
<g mask="url(#mask0_6_3309)">
<path d="M35.4 7.78836V9.90119H29.7375V12.2027H34.95V14.3532H29.7375V18.8052H27V7.78836H35.4Z" fill="white"/>
<path d="M37.6125 7.78836H39.9748V9.67482H37.6125V7.78836ZM37.6125 10.6558H39.9748V18.8052H37.6125V10.6558Z" fill="white"/>
<path d="M41.6626 10.6558H44.175C45.1876 14.2778 45.3375 14.9946 45.6001 16.5792C45.9377 14.7683 45.975 14.5796 46.4624 12.6554L46.9499 10.6558H49.3873L46.7623 18.8053H44.2876L41.6626 10.6558Z" fill="white"/>
<path d="M58.425 16.7301C58.1625 17.1829 57.8249 17.5979 57.4501 17.9375C56.625 18.6921 55.5374 19.1071 54.4125 19.1071C52.0124 19.1071 50.325 17.5602 50.325 14.8814C50.325 12.9195 51.3 10.3917 54.4875 10.3917C55.5751 10.3539 56.625 10.769 57.4124 11.5613C58.4627 12.6931 58.5377 14.2778 58.575 15.221H52.8001C52.8001 16.2397 53.3626 17.2584 54.6374 17.2584C55.9127 17.2584 56.4001 16.3906 56.7 15.8246L58.425 16.7301ZM56.0626 13.7118C56.0249 13.2968 55.875 12.8818 55.6124 12.5422C55.3125 12.2404 54.8627 12.0895 54.4502 12.0895C54 12.0895 53.5502 12.2781 53.2499 12.6177C52.9874 12.9195 52.8374 13.2968 52.7625 13.6741H56.0626V13.7118Z" fill="white"/>
<path d="M60.9001 8.31659H63.2626V10.8444H64.8373V12.3158H63.2626V16.0133C63.2626 16.5038 63.2626 16.9565 63.9 16.9565L64.7623 16.9188V18.8053C64.3498 18.8807 63.9373 18.9184 63.5252 18.9184C62.7001 18.9184 61.8001 18.8807 61.275 18.1261C60.9374 17.6356 60.9374 17.0697 60.9374 16.2774V12.3158H59.7748V10.8444H60.9374L60.9001 8.31659Z" fill="white"/>
<path d="M69.1124 11.5236C69.7502 10.9576 70.5748 10.6181 71.4375 10.5804V12.6931L70.6502 12.8064C69.4876 12.995 69.1501 13.1836 69.1501 14.2023V18.7675H66.7876V10.6558H69.1124V11.5236Z" fill="white"/>
<path d="M73.1999 12.995C73.1999 12.2781 73.5001 11.6367 74.0626 11.184C74.8126 10.5803 75.7499 10.4671 76.7249 10.4671C77.6999 10.4671 80.1373 10.6935 80.1373 12.8063V17.5225C80.1373 18.3902 80.175 18.5411 80.3626 18.8052H78.0001V18.0507C77.3623 18.5034 76.7249 19.0316 75.525 19.0316C73.6874 19.0316 72.8623 17.6734 72.8623 16.5415C72.8623 15.221 73.9127 14.4664 74.5501 14.2023C75.6 13.8627 76.6499 13.5986 77.7376 13.4477V12.995C77.6999 12.6177 77.6626 11.9763 76.7999 11.9763C75.7499 11.9763 75.6 12.6177 75.5623 12.9195L73.1999 12.995ZM76.2001 15.4473C75.7876 15.5983 75.1875 15.8246 75.1875 16.4661C75.2248 16.9565 75.6 17.2961 76.0875 17.2961C76.3874 17.2961 76.6499 17.1829 76.9125 17.032C77.6999 16.5415 77.7376 15.7869 77.7376 14.9569L76.2001 15.4473Z" fill="white"/>
<path d="M85.2001 11.4103C85.425 11.1463 85.6876 10.9199 86.0252 10.769C86.475 10.5803 87.0001 10.4671 87.4876 10.4671C87.9751 10.4671 88.4999 10.5803 88.9124 10.8067C89.7751 11.2594 89.9623 11.9763 89.9623 13.2591V18.843H87.5999V14.24C87.6376 13.825 87.5999 13.41 87.4876 13.0327C87.3 12.6177 86.8875 12.3913 86.4377 12.3913C85.2001 12.3913 85.2001 13.41 85.2001 14.4287V18.843H82.8377V10.6935H85.2374L85.2001 11.4103Z" fill="white"/>
<path d="M12.45 13.2214H14.9625C15.1875 13.2214 15.3375 13.0704 15.3375 12.8441C15.3375 12.8063 15.3375 12.7309 15.3 12.6931L10.9875 0.846217C10.95 0.6953 10.8 0.619843 10.65 0.619843H8.13748C7.91246 0.619843 7.76248 0.770759 7.76248 0.997134C7.76248 1.03486 7.76248 1.07259 7.79997 1.11032L12.1125 12.995C12.15 13.1459 12.3 13.2214 12.45 13.2214Z" fill="white"/>
<path d="M12 25.8229H14.5125C14.7375 25.8229 14.8875 25.6719 14.8875 25.4456C14.8875 25.4079 14.8875 25.3701 14.85 25.3324L5.96248 0.846217C5.88747 0.6953 5.7375 0.619843 5.58748 0.619843H3.07498C2.84998 0.619843 2.69998 0.770759 2.69998 0.997134C2.69998 1.03486 2.69998 1.07259 2.73748 1.11032L11.6625 25.5587C11.7 25.7097 11.85 25.8229 12 25.8229Z" fill="white"/>
<path d="M7.04999 25.8229H9.56249C9.74999 25.8229 9.93748 25.6719 9.93748 25.4833C9.93748 25.4456 9.93749 25.3701 9.9 25.3324L5.54998 13.4477C5.51249 13.2968 5.36248 13.2213 5.2125 13.2213H2.69999C2.51249 13.2213 2.36249 13.41 2.36249 13.5986C2.36249 13.6363 2.36249 13.6741 2.39999 13.7118L6.71248 25.5965C6.75 25.7096 6.89998 25.8229 7.04999 25.8229Z" fill="white"/>
<path d="M12.75 1.11032L14.775 6.65651C14.8125 6.80739 14.9625 6.88285 15.1125 6.88285H17.625C17.85 6.88285 18 6.73193 18 6.50559C18 6.46785 18 6.43014 17.9625 6.39239L15.9375 0.846217C15.9 0.6953 15.75 0.619843 15.6 0.619843H13.0875C12.8625 0.619843 12.7125 0.770759 12.7125 0.997134C12.7125 1.03486 12.7125 1.07259 12.75 1.11032Z" fill="white"/>
<path d="M2.4 25.8228H4.91252C5.1375 25.8228 5.28751 25.6719 5.28751 25.4456C5.28751 25.4078 5.28751 25.3701 5.24999 25.3324L3.225 19.7485C3.1875 19.5976 3.0375 19.5221 2.8875 19.5221H0.375C0.15 19.5221 0 19.673 0 19.8994C0 19.9371 0 19.9748 0.0375 20.0126L2.0625 25.5965C2.1 25.7096 2.25 25.8228 2.4 25.8228Z" fill="white"/>
</g>
</g>
<defs>
<clipPath id="clip0_6_3309">
<rect width="90" height="25.203" fill="white" transform="translate(0 0.619843)"/>
</clipPath>
</defs>
</svg>
