<svg width="120" height="26" viewBox="0 0 120 26" fill="none" xmlns="http://www.w3.org/2000/svg">
<path d="M4.4022 8.78596L15.2171 2.53926L10.818 0L0 6.26207V12.146L4.4022 14.6853V8.78596Z" fill="white"/>
<path d="M10.8241 19.9332L0 13.6865V18.765L10.8334 25.0117L15.9119 22.0821V17.0035L10.8334 19.9332H10.8241Z" fill="white"/>
<path d="M12.1707 5.84102L17.2676 8.77684L17.2492 21.2856L21.6514 18.7464V6.26218L16.5544 3.30176L12.1707 5.84102ZM38.6699 6.46507C38.6546 6.45892 38.6361 6.45892 38.6208 6.45892V6.46815H36.7578C36.7282 6.468 36.6991 6.47593 36.6736 6.4911C36.6482 6.50627 36.6273 6.52809 36.6133 6.55422L32.8905 14.0029C32.8863 14.0106 32.88 14.017 32.8725 14.0215C32.8649 14.0259 32.8563 14.0283 32.8475 14.0283C32.8387 14.0283 32.8301 14.0259 32.8225 14.0215C32.8149 14.017 32.8087 14.0106 32.8044 14.0029L29.1308 6.60648C29.1111 6.56414 29.0799 6.52817 29.0408 6.50263C29.0017 6.4771 28.9562 6.46302 28.9095 6.462H27.1142C26.9697 6.462 26.9113 6.56345 26.9697 6.68949L32.6569 18.4021C32.743 18.5896 33.0135 18.5896 33.0965 18.4021L38.7837 6.68949C38.7905 6.66708 38.7928 6.64355 38.7905 6.62024C38.7881 6.59694 38.7812 6.57433 38.77 6.55374C38.7589 6.53315 38.7437 6.51497 38.7255 6.50028C38.7073 6.48559 38.6863 6.47466 38.6638 6.46815L38.6699 6.46507ZM92.3387 6.60034C92.2526 6.41281 91.9821 6.41281 91.8991 6.60034L86.2119 18.3129C86.1596 18.4236 86.2365 18.5404 86.3564 18.5404H88.2193C88.2777 18.5404 88.3392 18.5066 88.3638 18.4543L89.7011 15.5523C89.7257 15.4939 89.7872 15.4662 89.8456 15.4662H94.3984C94.4568 15.4662 94.5183 15.5 94.5429 15.5523L95.8801 18.4543C95.9047 18.5127 95.9662 18.5404 96.0246 18.5404H97.8876C97.9767 18.5404 98.0474 18.4666 98.0474 18.3775C98.0474 18.3559 98.0413 18.3313 98.0321 18.3129L92.3449 6.60034H92.3387ZM93.4823 13.4311H90.7401C90.7063 13.4311 90.6817 13.3973 90.6971 13.3635L92.0682 10.4C92.0724 10.3923 92.0787 10.3859 92.0862 10.3814C92.0938 10.377 92.1024 10.3746 92.1112 10.3746C92.12 10.3746 92.1286 10.377 92.1362 10.3814C92.1438 10.3859 92.15 10.3923 92.1543 10.4L93.5253 13.3635C93.5438 13.3973 93.5253 13.4311 93.4823 13.4311ZM108.878 16.5053V16.4868H101.869C101.846 16.4868 101.824 16.4778 101.808 16.4616C101.792 16.4455 101.783 16.4236 101.783 16.4008V6.73867C101.783 6.6526 101.696 6.56959 101.613 6.56959H99.895C99.8028 6.56959 99.7259 6.64645 99.7259 6.73867V18.2822C99.7259 18.3682 99.812 18.4512 99.895 18.4512H108.85C108.936 18.4512 109.019 18.3836 109.019 18.2975L109.044 16.6713C109.034 16.5698 108.958 16.5022 108.875 16.5022L108.878 16.5053ZM79.9498 6.59419L79.9406 6.56959H76.2178C76.1256 6.56959 76.0487 6.64645 76.0487 6.73867V18.2822C76.0487 18.3682 76.1348 18.4512 76.2178 18.4512H80.0943C83.5466 18.4512 86.341 15.6568 86.215 12.2968C86.0889 9.08119 83.2515 6.59111 79.9529 6.59111L79.9498 6.59419ZM80.0851 16.4715L80.0666 16.4899H78.1207C78.0979 16.4899 78.076 16.4809 78.0598 16.4647C78.0437 16.4486 78.0346 16.4267 78.0346 16.4038V8.58317C78.0346 8.53706 78.0715 8.4971 78.1207 8.4971H79.9498C82.0925 8.4971 83.9708 10.0373 84.1829 12.1031C84.4197 14.4733 82.4891 16.4715 80.0851 16.4715ZM58.8488 14.2458V14.2366C58.8303 14.212 58.8395 14.1781 58.8672 14.1689C59.6017 13.8773 60.232 13.3724 60.6769 12.7192C61.1218 12.0661 61.3609 11.2948 61.3634 10.5045C61.3634 8.32802 59.5866 6.56037 57.4008 6.56037H52.4914C52.4022 6.56037 52.3315 6.63108 52.3315 6.72023V18.2822C52.3315 18.3713 52.4022 18.442 52.4914 18.442H54.1238C54.2129 18.442 54.2836 18.3713 54.2836 18.2822V14.3903C54.2836 14.3657 54.3021 14.338 54.3359 14.338H56.3003C56.3525 14.338 56.4017 14.3626 56.4263 14.4056L59.3714 18.3682C59.4021 18.4082 59.4482 18.4359 59.4974 18.4359H61.4864C61.6124 18.4359 61.6893 18.2914 61.6124 18.1807L58.8457 14.2458H58.8488ZM57.324 12.5365V12.5181H54.3205C54.2959 12.5181 54.2683 12.4935 54.2683 12.4658V8.54628C54.2683 8.52169 54.2867 8.49402 54.3205 8.49402H57.3916C58.5936 8.49402 59.5589 9.54231 59.399 10.7781C59.273 11.7926 58.3569 12.5304 57.324 12.5304V12.5365ZM49.6324 16.5207L49.6232 16.4776H42.5803C42.5557 16.4776 42.528 16.4592 42.528 16.4254V13.4957C42.528 13.4711 42.5526 13.4434 42.5803 13.4434H47.9293C48.0154 13.4434 48.0984 13.3758 48.0984 13.2897L48.123 11.6635C48.123 11.5774 48.0369 11.4944 47.9539 11.4944H42.5803C42.5557 11.4944 42.528 11.476 42.528 11.4421V8.54013C42.528 8.51554 42.5526 8.48787 42.5803 8.48787H49.6048C49.6908 8.48787 49.7738 8.42024 49.7738 8.33416L49.7923 6.72638C49.7923 6.6403 49.7062 6.5573 49.6232 6.5573H40.6528C40.5606 6.5573 40.4837 6.63415 40.4837 6.72638V18.2822C40.4837 18.3682 40.5698 18.4512 40.6528 18.4512H49.6078C49.6939 18.4512 49.7769 18.3836 49.7769 18.2975L49.8015 16.6713C49.7831 16.5852 49.7154 16.5176 49.6324 16.5176V16.5207ZM119.822 16.5053H113C112.976 16.5053 112.948 16.4868 112.948 16.453V13.5172C112.948 13.4926 112.972 13.4649 113 13.4649H118.18C118.266 13.4649 118.349 13.3973 118.349 13.3112L118.374 11.685C118.374 11.5959 118.303 11.5251 118.214 11.5251H113.009C112.985 11.5251 112.957 11.5067 112.957 11.4729V8.54321C112.957 8.51861 112.982 8.49095 113.009 8.49095H119.816C119.902 8.49095 119.985 8.42332 119.985 8.33724L120.003 6.71101C120.003 6.62186 119.932 6.55115 119.843 6.55115H111.125C111.036 6.55115 110.965 6.62186 110.965 6.71101V18.2822C110.965 18.3713 111.036 18.442 111.125 18.442H119.8C119.886 18.442 119.969 18.3744 119.969 18.2883L119.994 16.6559C119.989 16.6143 119.969 16.5759 119.938 16.5476C119.907 16.5194 119.867 16.5033 119.825 16.5022L119.822 16.5053ZM73.3404 6.4497H71.7141L71.7234 6.43126C71.6404 6.43126 71.5697 6.49889 71.5697 6.58497V13.5418C71.5697 13.5848 71.5174 13.6002 71.4836 13.5756L64.5944 6.43126C64.4499 6.26218 64.1886 6.37285 64.1886 6.58497V18.0946C64.1886 18.1776 64.2562 18.2483 64.3423 18.2483H65.9501C66.0331 18.2483 66.1038 18.1807 66.1038 18.0946V11.2147C66.1038 11.1716 66.1561 11.1562 66.1899 11.1808L73.0883 18.5435C73.2328 18.7125 73.4941 18.6019 73.4941 18.3898V6.60034C73.4941 6.51733 73.4265 6.44663 73.3404 6.44663V6.4497Z" fill="white"/>
</svg>
