<svg width="110" height="33" viewBox="0 0 110 33" fill="none" xmlns="http://www.w3.org/2000/svg">
<g clip-path="url(#clip0_11733_5843)">
<g clip-path="url(#clip1_11733_5843)">
<path d="M44.5573 20.7832V21.0745H45.0322C46.2545 21.0745 46.2671 21.0872 46.2671 22.4804V29.1235L39.6747 20.7832H36.1854V21.0745H37.5406L37.8256 21.2772V30.0037C37.8256 31.0043 37.8256 31.0866 37.7749 31.2766C37.6736 31.7009 37.4709 31.8022 36.7427 31.8022H36.1854V32.0872H39.8647V31.8022H39.3898C38.1675 31.8022 38.0979 31.7009 38.0979 30.0037V21.5812L46.4381 32.1759H46.5394V22.4804C46.5394 21.5432 46.93 21.0745 47.711 21.0745H48.1859V20.7832H44.5573ZM63.2832 28.3635V29.0918C63.2832 30.276 62.9413 30.9853 62.194 31.3589C61.5861 31.6819 60.5538 31.8022 58.5337 31.8022H56.8428V21.0745H58.7237V20.7832H53.5498V21.0745H55.1963V31.8022H53.5498V32.0872H63.5682V28.3635H63.2832ZM26.7432 20.8022V21.0935H27.5538C28.5354 21.1062 28.7064 21.3089 28.6937 22.4931L28.6494 28.3255C28.6367 29.5984 28.4974 30.1747 28.0351 30.7763C27.3892 31.6186 26.4013 32.0365 25.0461 32.0239C23.8745 32.0239 22.9816 31.7072 22.3736 31.0866C21.867 30.5737 21.772 30.1494 21.7847 28.6295L21.8417 21.0492L23.6085 21.0682V20.7769L18.5233 20.7389V21.0239L20.1635 21.0365L20.1065 28.5282C20.0938 30.0734 20.1888 30.4977 20.6448 31.0233C21.3857 31.8972 22.6523 32.3089 24.6344 32.3279C26.091 32.3405 27.0599 32.0745 27.7945 31.4729C28.5987 30.8017 28.928 29.8897 28.9407 28.2749L28.985 22.4994C28.9914 21.3469 29.1623 21.1125 29.9476 21.1189H30.6379V20.8339L26.7432 20.8022ZM92.7496 21.2582C91.9136 20.9036 91.1727 20.7832 89.7985 20.7832H85.0869V21.0745H86.7335V31.8022H85.0869V32.0872H90.1215V31.8022H88.3926V26.7867C88.9816 27.021 89.4755 27.1097 90.2228 27.1097C92.8636 27.1097 94.6621 25.7988 94.6621 23.9053C94.6621 22.6831 94.0161 21.7838 92.7496 21.2582ZM92.3063 25.8684C91.7617 26.4827 90.8814 26.8184 89.8808 26.8184C89.2729 26.8184 88.8803 26.736 88.3926 26.4637V21.0745C88.7156 21.0365 88.8802 21.0365 89.1019 21.0365C90.1215 21.0365 91.0334 21.1949 91.5273 21.4482C92.4393 21.9231 92.9016 22.8161 92.9016 24.1079C92.9016 24.8869 92.7116 25.4315 92.3063 25.8684ZM62.1433 11.8477L56.6845 5.4073L59.1416 3.19083C59.9522 2.44357 60.8895 1.7343 61.4974 1.37333C61.833 1.18968 62.1244 1.12002 62.5803 1.12002H63.4796V0.835047H58.6477V1.12002H59.5153C60.1232 1.12002 60.3132 1.18968 60.3132 1.42399C60.3132 1.64564 60.0219 2.03827 59.4646 2.52589L55.2406 6.32555V1.12002H56.9378V0.835047H51.9539V1.12002H53.6005V11.8477H51.9539V12.139H57.0201V11.8477H55.2406V6.69918L55.4496 6.5092L59.8509 11.8477H58.2614V12.139H63.7709V11.8477H62.1433ZM95.821 11.7844C95.498 11.8857 95.346 11.9174 95.1434 11.9174C94.6177 11.9174 94.3771 11.5627 94.2948 10.6318L94.1744 9.4096C94.0098 7.1868 93.3448 6.5282 91.0904 6.23689C92.1416 6.1229 92.6989 5.97091 93.2435 5.66694C94.0225 5.20465 94.4847 4.42572 94.4847 3.54547C94.4847 2.88686 94.2631 2.27258 93.8198 1.79763C93.2245 1.13902 92.3126 0.835047 90.9067 0.835047H85.0426V1.12002H86.6828V11.8477H85.0426V12.139H90.0898V11.8477H88.3483V6.37621H89.0069C89.9378 6.37621 90.7547 6.49653 91.179 6.68018C91.8376 6.98416 92.1226 7.44011 92.2303 8.40903L92.4139 10.0175C92.5152 11.0181 92.5976 11.2398 92.9712 11.6324C93.3638 12.0694 93.8388 12.2593 94.5861 12.2593C95.0927 12.2593 95.498 12.1897 95.9223 12.0187L95.821 11.7844ZM88.3483 6.1229V1.12002H88.9562C90.6534 1.12002 91.2107 1.22135 91.768 1.59498C92.3633 2.00027 92.7369 2.7982 92.7369 3.64679C92.7369 4.3244 92.4836 4.93234 92.0086 5.37563C91.464 5.88226 90.5141 6.1229 89.0069 6.1229H88.3483ZM78.5009 22.7337C77.5193 21.4482 75.8728 20.5489 74.5176 20.5489C73.2637 20.5489 71.9908 21.1252 70.9079 22.1891C69.7743 23.291 69.1664 24.7475 69.1664 26.3941C69.1664 27.6669 69.5527 28.9018 70.2493 29.9214C71.2499 31.3463 72.928 32.2899 74.4479 32.2899C75.7018 32.2899 77.0633 31.6629 78.0639 30.6307C79.1468 29.5161 79.7231 28.0532 79.7231 26.4637C79.7231 25.0895 79.2798 23.7533 78.5009 22.7337ZM74.4352 32.0365C72.1618 32.0365 71.0472 30.1557 71.0472 26.3624C71.0472 22.8034 72.2504 20.8022 74.3846 20.8022C76.639 20.8022 77.8423 22.7337 77.8423 26.3941C77.8423 30.0544 76.7024 32.0365 74.4352 32.0365ZM9.27749 21.0555C8.4289 20.8212 8.10593 20.7832 6.10478 20.7832H1.93782V21.0745H3.58434V31.8022H1.93782V32.0872H6.37709C8.46056 32.0872 9.32815 31.9542 10.3097 31.4476C12.1082 30.5483 13.1911 28.6675 13.1911 26.4637C13.1911 23.8546 11.6839 21.7648 9.27749 21.0555ZM10.4427 30.1557C9.85377 31.036 8.66321 31.6312 7.24467 31.7516C6.70006 31.8022 6.40875 31.8022 5.25619 31.8022V21.0745C6.97237 21.0745 7.40933 21.1062 8.12493 21.2962C10.2401 21.8725 11.342 23.6013 11.342 26.3434C11.342 28.0026 11.038 29.2945 10.4427 30.1557ZM29.099 11.8477L24.8307 0.664062H24.6091L21.0501 10.5622C20.6448 11.6957 20.4928 11.8477 19.7962 11.8477H19.2579V12.139H22.8169V11.8477H22.2913C21.4934 11.8477 21.1514 11.6957 21.1514 11.3728C21.1514 11.2588 21.2401 10.9675 21.3541 10.5938L22.133 8.44069H26.0023L27.2879 11.8477H25.6097V12.139H30.5429V11.8477H29.099ZM22.2406 8.17471L24.0012 3.14017L25.901 8.17471H22.2406ZM79.0645 8.81432V9.46026C79.0645 10.3595 78.6528 10.9865 77.7916 11.4108C77.1456 11.7337 76.2971 11.8477 74.6062 11.8477H72.4847V6.5092H73.1307C73.9413 6.5092 74.5366 6.55986 74.8405 6.62952C75.4358 6.80051 75.7588 7.23747 75.7588 7.88341V8.47869H76.0438V4.22307H75.7588V4.74869C75.7588 5.24265 75.4548 5.76827 75.0432 5.97091C74.7075 6.15456 73.9793 6.25589 73.1497 6.25589H72.4847V1.12002H74.4162C75.9804 1.12002 76.8923 1.25934 77.4496 1.58231C78.0766 1.93695 78.2666 2.29158 78.4882 3.59613H78.7415L78.4882 0.835047H69.179V1.12002H70.8256V11.8477H69.179V12.139H79.3495V8.81432H79.0645ZM45.9568 8.40903V9.13729C45.9568 10.3215 45.6212 11.0371 44.8739 11.4108C44.266 11.7337 43.2337 11.8477 41.2136 11.8477H39.5164V1.12002H41.4036V0.835047H36.2297V1.12002H37.8762V11.8477H36.2297V12.139H46.2481V8.40903H45.9568ZM16.9655 0.822381V1.04403H15.5533L11.494 12.2213H11.1013L8.4479 4.81202L5.75648 12.2213H5.36385L2.66609 4.69803H2.65976L1.90616 2.67788L1.31721 1.04403H0V0.822381H4.70524V1.04403H2.99539L6.2251 10.1379H6.25676L8.30858 4.46372L7.64997 2.67788H7.64364L7.05469 1.04403H5.73748V0.822381H10.4427V1.04403H8.73287L11.9626 10.1379H11.9942L15.2873 1.04403H13.6091V0.822381H16.9655Z" fill="white"/>
<path d="M105.592 6.23642V6.21742L105.345 5.94511C104.94 5.52082 104.598 5.05219 104.617 4.43158C104.617 3.63999 105.2 2.74707 106.454 2.74707C107.574 2.74707 108.208 3.48167 108.208 4.34926C108.208 5.27384 107.27 5.97044 106.669 6.34408L108.385 8.06025C108.657 7.5093 108.803 6.87603 108.803 6.21109C108.803 5.98311 108.885 5.97044 109.044 5.97044H109.291C109.506 5.97044 109.487 6.12876 109.487 6.21109C109.487 7.00902 109.259 7.86394 108.873 8.54788L109.867 9.54212C109.994 9.67511 110.076 9.78276 109.854 10.0171L109.728 10.1311C109.601 10.2451 109.449 10.2641 109.291 10.0994L108.41 9.18749C107.847 9.82076 107.08 10.2261 106.143 10.2261C104.832 10.2261 104.136 9.33314 104.136 8.31356C104.136 7.19267 105.016 6.56572 105.58 6.23642H105.592ZM106.188 9.58012C106.903 9.58012 107.517 9.23815 107.961 8.69986L106.042 6.68605C105.567 6.97735 104.877 7.5093 104.877 8.32623C104.877 9.0545 105.459 9.58012 106.188 9.58012ZM107.486 4.36826C107.486 3.86797 107.099 3.36135 106.397 3.36135C105.694 3.36135 105.32 3.84897 105.32 4.45058C105.301 4.89388 105.592 5.24851 105.985 5.63481L106.213 5.86279C106.682 5.58415 107.492 5.11552 107.492 4.36826H107.486Z" fill="white"/>
<path d="M99.0887 20.8018C100.444 20.8018 101.546 21.91 101.546 23.2589C101.546 24.6077 100.438 25.7096 99.0887 25.7096C97.7398 25.7096 96.6379 24.6077 96.6379 23.2589C96.6379 21.91 97.7398 20.8018 99.0887 20.8018ZM99.0887 25.241C100.191 25.241 101.071 24.3544 101.071 23.2589C101.071 22.1633 100.191 21.2767 99.0887 21.2767C97.9868 21.2767 97.1066 22.157 97.1066 23.2589C97.1066 24.3608 97.9931 25.241 99.0887 25.241ZM98.2085 22.1316C98.2085 22.062 98.2655 21.9986 98.3351 21.9986H99.3484C99.7727 21.9986 100.191 22.2836 100.191 22.8029C100.191 23.2905 99.874 23.4805 99.6713 23.5565C99.7916 23.8098 99.9183 24.0695 100.032 24.3164C100.083 24.4051 100.013 24.5001 99.9183 24.5001H99.608C99.551 24.5001 99.5067 24.4494 99.4877 24.4051L99.1457 23.6008H98.7214V24.3734C98.7214 24.4431 98.6644 24.5064 98.5884 24.5064H98.3351C98.2591 24.5064 98.2085 24.4431 98.2085 24.3734V22.1316ZM99.3104 23.1512C99.513 23.1512 99.6523 22.9992 99.6523 22.8156C99.6523 22.6193 99.513 22.4799 99.3104 22.4799H98.7024V23.1512H99.3104Z" fill="white"/>
</g>
</g>
<defs>
<clipPath id="clip0_11733_5843">
<rect width="110" height="31.6638" fill="white" transform="translate(0 0.664062)"/>
</clipPath>
<clipPath id="clip1_11733_5843">
<rect width="110" height="31.6638" fill="white" transform="translate(0 0.664062)"/>
</clipPath>
</defs>
</svg>
