<svg width="120" height="22" viewBox="0 0 120 22" fill="none" xmlns="http://www.w3.org/2000/svg">
<g clip-path="url(#clip0_11689_63269)">
<g clip-path="url(#clip1_11689_63269)">
<path d="M17.9697 0.799842H2.74124C1.40113 0.799842 0.304688 1.89629 0.304688 3.23639V18.4648C0.304688 19.8049 1.40113 20.9014 2.74124 20.9014H17.9697C19.3098 20.9014 20.4062 19.8049 20.4062 18.4648V3.23639C20.4062 1.89629 19.3098 0.799842 17.9697 0.799842Z" fill="#080808"/>
<path d="M9.3198 15.8151L11.5431 12.008L13.7665 15.8151H9.3198ZM5.57361 10.8506L8.1929 6.46486L10.7513 10.8506L8.1929 15.2364L5.57361 10.8506ZM13.736 5.88618L11.5127 9.69329L9.28934 5.88618H13.736ZM12.2437 11.0029C12.1708 10.8571 12.1668 10.7619 12.2437 10.607L15.2893 5.39887C15.4416 5.12476 15.2589 4.72882 14.8934 4.72882H8.13198C7.9797 4.72882 7.8505 4.80353 7.7665 4.94202L4.35533 10.5765C4.27395 10.7158 4.27694 10.8944 4.35533 11.0334L7.7665 16.6679C7.84158 16.8068 7.96648 16.8811 8.13198 16.8811H14.8934C15.2284 16.8811 15.4416 16.5156 15.2893 16.2111L12.2437 11.0029Z" fill="white"/>
<path d="M30.6001 6.96079C31.953 6.96079 32.8283 7.59968 33.2763 8.91408L33.3108 9.01519L35.0763 8.54311L35.0489 8.43402C34.5229 6.34608 32.9017 5.14827 30.601 5.14803C29.2476 5.12981 27.981 5.63759 27.0496 6.57057C26.0147 7.60681 25.4795 9.05923 25.5019 10.7677C25.4795 12.4791 26.0147 13.9317 27.0496 14.968C27.9672 15.887 29.2045 16.3909 30.5386 16.3909C30.5593 16.3909 30.5797 16.3909 30.6001 16.3905C32.9014 16.3905 34.5229 15.1928 35.0489 13.1045L35.0763 12.9954L33.3108 12.5233L33.2763 12.6245C32.8283 13.9389 31.953 14.5777 30.6001 14.5777C28.6686 14.5777 27.4685 13.1182 27.4685 10.7691C27.4685 8.41998 28.6686 6.96079 30.6001 6.96079Z" fill="#080808"/>
<path d="M40.2805 8.16295C39.2879 8.16295 38.4019 8.61444 37.8412 9.38871V5.14796H35.9824V16.2673H37.8412V12.8612C37.8412 10.7625 38.8426 9.80655 39.7728 9.80655C40.5765 9.80655 40.9508 10.2444 40.9508 11.1846V16.2673H42.8099V10.6768C42.8099 9.07939 41.888 8.16295 40.2805 8.16295Z" fill="#080808"/>
<path d="M47.3975 9.80646C48.3121 9.80646 48.9298 10.3249 49.1491 11.2702H45.6517C45.9063 10.3505 46.5505 9.80646 47.3975 9.80646ZM47.3975 8.16286C44.8248 8.16286 43.6528 10.2954 43.6528 12.2767C43.6528 14.2578 44.8248 16.3904 47.3975 16.3904C49.108 16.3904 50.2361 15.6605 50.9472 14.093L50.9969 13.9833L49.453 13.3798L49.4046 13.4676C48.9051 14.3762 48.3456 14.7468 47.4743 14.7468C46.4153 14.7468 45.7218 14.0472 45.557 12.8216H51.0651V12.0304C51.0651 10.1084 49.8054 8.16286 47.3975 8.16286Z" fill="#080808"/>
<path d="M57.6775 13.4428C57.2496 14.3447 56.6789 14.7468 55.8273 14.7468C54.6562 14.7468 53.9569 13.8233 53.9569 12.2767C53.9569 10.73 54.6562 9.80646 55.8273 9.80646C56.6828 9.80646 57.2703 10.2202 57.6769 11.1089L57.7229 11.2091L59.3746 10.5238L59.3332 10.4192C58.7457 8.94307 57.5332 8.16286 55.8273 8.16286C53.5601 8.16286 52.0366 9.81596 52.0366 12.2767C52.0366 14.7372 53.5601 16.3904 55.8273 16.3904C57.5292 16.3904 58.7417 15.6049 59.3332 14.1186L59.3749 14.0131L57.7238 13.3456L57.6775 13.4428Z" fill="#080808"/>
<path d="M66.824 8.28608H64.5178L61.9458 11.2479V5.14796H60.0867V16.2673H61.9458V12.6997L64.745 16.2673H67.0406L63.5508 11.9722L66.824 8.28608Z" fill="#080808"/>
<path d="M72.1839 14.038C71.8226 14.5151 71.3393 14.7468 70.7058 14.7468C70.0711 14.7468 69.5685 14.5082 69.2122 14.038C68.8449 13.5535 68.6664 12.9774 68.6664 12.2767C68.6664 11.5762 68.8449 10.9997 69.2122 10.5149C69.5685 10.0448 70.0711 9.80646 70.7058 9.80646C71.339 9.80646 71.8226 10.0382 72.1839 10.5149C72.5512 10.9997 72.7296 11.5762 72.7296 12.2767C72.7296 12.9774 72.5512 13.5535 72.1839 14.038ZM70.7058 8.16286C68.3743 8.16286 66.7461 9.85464 66.7461 12.2767C66.7461 14.6986 68.3743 16.3904 70.7058 16.3904C73.0373 16.3904 74.6655 14.6986 74.6655 12.2767C74.6655 9.85464 73.0373 8.16286 70.7058 8.16286Z" fill="#080808"/>
<path d="M80.4912 11.5845C80.4912 13.4464 79.7158 14.7468 78.6056 14.7468C77.8442 14.7468 77.4738 14.3161 77.4738 13.4303V8.286H75.6147V13.8765C75.6147 15.4271 76.5723 16.3904 78.1131 16.3904C79.0116 16.3904 79.8623 15.943 80.4912 15.1513V16.2672H82.3348V8.286H80.4912V11.5845Z" fill="#080808"/>
<path d="M87.8357 14.563C87.6325 14.6849 87.3782 14.7468 87.0791 14.7468C86.4368 14.7468 86.1627 14.4039 86.1627 13.5996V9.9296H88.224V8.28599H86.1627V5.05471L84.3036 6.22955V8.28599H83.0576V9.9296H84.3036V13.5687C84.3036 15.3884 85.2618 16.3904 87.0021 16.3904C87.4994 16.3904 87.9462 16.2932 88.3303 16.1016L88.415 16.059L87.963 14.4862L87.8357 14.563Z" fill="#080808"/>
<path d="M90.2273 13.8392C89.5107 13.8392 88.9905 14.366 88.9905 15.0917C88.9905 15.8058 89.5223 16.3445 90.2273 16.3445C90.9623 16.3445 91.4956 15.8177 91.4956 15.0917C91.4956 14.366 90.9623 13.8392 90.2273 13.8392Z" fill="#080808"/>
<path d="M97.6817 13.4428C97.2538 14.3447 96.683 14.7468 95.8311 14.7468C94.6604 14.7468 93.9614 13.8233 93.9614 12.2767C93.9614 10.73 94.6604 9.80646 95.8311 9.80646C96.6867 9.80646 97.2745 10.2202 97.6814 11.1089L97.7271 11.2091L99.3787 10.5238L99.337 10.4192C98.7498 8.94307 97.5376 8.16286 95.8311 8.16286C93.5639 8.16286 92.0408 9.81596 92.0408 12.2767C92.0408 14.7372 93.5639 16.3904 95.8311 16.3904C97.5337 16.3904 98.7458 15.6049 99.337 14.1186L99.379 14.0131L97.728 13.3456L97.6817 13.4428Z" fill="#080808"/>
<path d="M105.366 14.038C105.005 14.5151 104.521 14.7468 103.888 14.7468C103.253 14.7468 102.751 14.5082 102.395 14.038C102.027 13.5535 101.849 12.9774 101.849 12.2767C101.849 11.5762 102.027 10.9997 102.395 10.5149C102.751 10.0448 103.253 9.80646 103.888 9.80646C104.521 9.80646 105.005 10.0382 105.366 10.5149C105.734 10.9997 105.912 11.5762 105.912 12.2767C105.912 12.9774 105.734 13.5535 105.366 14.038ZM103.888 8.16286C101.557 8.16286 99.9282 9.85464 99.9282 12.2767C99.9282 14.6986 101.557 16.3904 103.888 16.3904C106.219 16.3904 107.848 14.6986 107.848 12.2767C107.848 9.85464 106.219 8.16286 103.888 8.16286Z" fill="#080808"/>
<path d="M117.442 8.16295C116.524 8.16295 115.647 8.70785 115.058 9.63319C114.702 8.6826 113.935 8.16295 112.874 8.16295C112.003 8.16295 111.272 8.56863 110.696 9.36992V8.28608H108.837V16.2673H110.696V13.1381C110.696 11.1144 111.382 9.80655 112.443 9.80655C113.119 9.80655 113.421 10.1652 113.421 10.9693V16.2673H115.264V13.015C115.264 11.096 115.967 9.80655 117.012 9.80655C117.688 9.80655 117.99 10.1652 117.99 10.9693V16.2673H119.833V10.7078C119.833 9.09069 118.962 8.16295 117.442 8.16295Z" fill="#080808"/>
</g>
</g>
<defs>
<clipPath id="clip0_11689_63269">
<rect width="120" height="20.7107" fill="white" transform="translate(0 0.495361)"/>
</clipPath>
<clipPath id="clip1_11689_63269">
<rect width="120" height="20.7107" fill="white" transform="translate(0 0.495361)"/>
</clipPath>
</defs>
</svg>
