<svg width="100" height="27" viewBox="0 0 100 27" fill="none" xmlns="http://www.w3.org/2000/svg">
<g clip-path="url(#clip0_11248_708)">
<g clip-path="url(#clip1_11248_708)">
<path fill-rule="evenodd" clip-rule="evenodd" d="M10.1249 2.25528C10.7487 2.25528 11.2285 1.77543 11.2285 1.15163C11.2285 0.527831 10.7487 0.0479846 10.1249 0.0479846C9.50107 0.0479846 9.02122 0.527831 9.02122 1.15163C9.02122 1.72745 9.50107 2.25528 10.1249 2.25528ZM15.2592 2.83109C15.2592 3.45489 14.7794 3.93474 14.1556 3.93474C13.5318 3.93474 13.0519 3.45489 13.0519 2.83109C13.0519 2.20729 13.5318 1.72745 14.1556 1.72745C14.7794 1.72745 15.2592 2.20729 15.2592 2.83109ZM21.4492 4.84645C21.4492 5.47025 20.9694 5.9501 20.3456 5.9501C19.7218 5.9501 19.242 5.47025 19.242 4.84645C19.242 4.22265 19.7218 3.7428 20.3456 3.7428C20.9694 3.7428 21.4492 4.22265 21.4492 4.84645ZM7.91758 6.04607C8.54138 6.04607 9.02122 5.56622 9.02122 4.94242C9.02122 4.31862 8.54138 3.83877 7.91758 3.83877C7.29378 3.83877 6.81393 4.31862 6.81393 4.94242C6.76595 5.51823 7.29378 6.04607 7.91758 6.04607ZM3.64694 6.90979C4.27074 6.90979 4.75059 6.42994 4.75059 5.80614C4.75059 5.18234 4.27074 4.7025 3.64694 4.7025C3.02314 4.7025 2.5433 5.18234 2.5433 5.80614C2.5433 6.42994 3.02314 6.90979 3.64694 6.90979ZM5.23044 10.1248C5.23044 10.7486 4.75059 11.2284 4.12679 11.2284C3.50299 11.2284 3.02314 10.7486 3.02314 10.1248C3.02314 9.50096 3.50299 9.02111 4.12679 9.02111C4.75059 9.02111 5.23044 9.50096 5.23044 10.1248ZM7.29378 13.3877C7.29378 14.0115 6.81393 14.4914 6.19013 14.4914C5.56633 14.4914 5.08648 14.0115 5.08648 13.3877C5.08648 12.7639 5.56633 12.2841 6.19013 12.2841C6.81393 12.2841 7.29378 12.8119 7.29378 13.3877ZM2.25539 13.3877C2.25539 14.0115 1.77554 14.4914 1.15174 14.4914C0.527942 14.4914 0.0480957 14.0115 0.0480957 13.3877C0.0480957 12.7639 0.527942 12.2841 1.15174 12.2841C1.72756 12.2841 2.25539 12.8119 2.25539 13.3877ZM4.12679 17.8023C4.75059 17.8023 5.23044 17.3225 5.23044 16.6987C5.23044 16.0749 4.75059 15.595 4.12679 15.595C3.50299 15.595 3.02314 16.0749 3.02314 16.6987C2.97516 17.3225 3.50299 17.8023 4.12679 17.8023ZM8.87727 18.1382C8.87727 18.762 8.39742 19.2418 7.77362 19.2418C7.14982 19.2418 6.66998 18.762 6.66998 18.1382C6.66998 17.5144 7.14982 17.0345 7.77362 17.0345C8.39742 17.0345 8.87727 17.5144 8.87727 18.1382ZM7.96556 23.1286C8.58936 23.1286 9.06921 22.6488 9.06921 22.025C9.06921 21.4012 8.58936 20.9213 7.96556 20.9213C7.34176 20.9213 6.86192 21.4012 6.86192 22.025C6.86192 22.6488 7.34176 23.1286 7.96556 23.1286ZM8.87727 8.63724C8.87727 9.26104 8.39742 9.74088 7.77362 9.74088C7.14982 9.74088 6.66998 9.26104 6.66998 8.63724C6.66998 8.01344 7.14982 7.53359 7.77362 7.53359C8.39742 7.53359 8.87727 8.06142 8.87727 8.63724ZM12.812 5.80614C12.812 6.42994 12.3322 6.90979 11.7084 6.90979C11.0846 6.90979 10.6047 6.42994 10.6047 5.80614C10.6047 5.18234 11.0846 4.7025 11.7084 4.7025C12.3322 4.65451 12.812 5.18234 12.812 5.80614ZM16.6028 6.90979C17.2266 6.90979 17.7064 6.42994 17.7064 5.80614C17.7064 5.18234 17.2266 4.7025 16.6028 4.7025C15.979 4.7025 15.4992 5.18234 15.4992 5.80614C15.4992 6.42994 15.979 6.90979 16.6028 6.90979ZM20.5855 9.83685C21.2093 9.83685 21.6892 9.35701 21.6892 8.73321C21.6892 8.10941 21.2093 7.62956 20.5855 7.62956C19.9617 7.62956 19.4819 8.10941 19.4819 8.73321C19.4339 9.35701 19.9617 9.83685 20.5855 9.83685ZM25.336 10.1248C25.336 10.7486 24.8562 11.2284 24.2324 11.2284C23.6086 11.2284 23.1287 10.7486 23.1287 10.1248C23.1287 9.50096 23.6086 9.02111 24.2324 9.02111C24.8562 9.02111 25.336 9.50096 25.336 10.1248ZM24.2324 17.8023C24.8562 17.8023 25.336 17.3225 25.336 16.6987C25.336 16.0749 24.8562 15.595 24.2324 15.595C23.6086 15.595 23.1287 16.0749 23.1287 16.6987C23.0807 17.3225 23.6086 17.8023 24.2324 17.8023ZM21.6892 18.1382C21.6892 18.762 21.2093 19.2418 20.5855 19.2418C19.9617 19.2418 19.4819 18.762 19.4819 18.1382C19.4819 17.5144 19.9617 17.0345 20.5855 17.0345C21.2093 17.0345 21.6892 17.5144 21.6892 18.1382ZM24.7122 22.1209C25.336 22.1209 25.8159 21.6411 25.8159 21.0173C25.8159 20.3935 25.336 19.9136 24.7122 19.9136C24.0884 19.9136 23.6086 20.3935 23.6086 21.0173C23.6086 21.6411 24.0884 22.1209 24.7122 22.1209ZM17.7544 21.0173C17.7544 21.6411 17.2746 22.1209 16.6508 22.1209C16.027 22.1209 15.5471 21.6411 15.5471 21.0173C15.5471 20.3935 16.027 19.9136 16.6508 19.9136C17.2266 19.9136 17.7544 20.3935 17.7544 21.0173ZM11.7084 22.1209C12.3322 22.1209 12.812 21.6411 12.812 21.0173C12.812 20.3935 12.3322 19.9136 11.7084 19.9136C11.0846 19.9136 10.6047 20.3935 10.6047 21.0173C10.6047 21.6411 11.0846 22.1209 11.7084 22.1209ZM4.75059 21.0173C4.75059 21.6411 4.27074 22.1209 3.64694 22.1209C3.02314 22.1209 2.5433 21.6411 2.5433 21.0173C2.5433 20.3935 3.02314 19.9136 3.64694 19.9136C4.27074 19.9136 4.75059 20.3935 4.75059 21.0173ZM20.3456 23.1286C20.9694 23.1286 21.4492 22.6488 21.4492 22.025C21.4492 21.4012 20.9694 20.9213 20.3456 20.9213C19.7218 20.9213 19.242 21.4012 19.242 22.025C19.194 22.6488 19.7218 23.1286 20.3456 23.1286ZM15.2592 23.9923C15.2592 24.6161 14.7794 25.096 14.1556 25.096C13.5318 25.096 13.0519 24.6161 13.0519 23.9923C13.0519 23.3685 13.5318 22.8887 14.1556 22.8887C14.7794 22.8887 15.2592 23.3685 15.2592 23.9923ZM18.1863 26.8714C18.8101 26.8714 19.2899 26.3916 19.2899 25.7678C19.2899 25.144 18.8101 24.6641 18.1863 24.6641C17.5625 24.6641 17.0826 25.144 17.0826 25.7678C17.0826 26.3916 17.5625 26.8714 18.1863 26.8714ZM11.2765 25.7678C11.2765 26.3916 10.7967 26.8714 10.1729 26.8714C9.54906 26.8714 9.06921 26.3916 9.06921 25.7678C9.06921 25.144 9.54906 24.6641 10.1729 24.6641C10.7967 24.6641 11.2765 25.144 11.2765 25.7678ZM22.169 14.5393C22.7928 14.5393 23.2727 14.0595 23.2727 13.4357C23.2727 12.8119 22.7928 12.3321 22.169 12.3321C21.5452 12.3321 21.0654 12.8119 21.0654 13.4357C21.0654 14.0115 21.5452 14.5393 22.169 14.5393ZM28.359 13.3877C28.359 14.0115 27.8792 14.4914 27.2554 14.4914C26.6316 14.4914 26.1517 14.0115 26.1517 13.3877C26.1517 12.7639 26.6316 12.2841 27.2554 12.2841C27.8312 12.2841 28.359 12.8119 28.359 13.3877ZM24.7122 6.90979C25.336 6.90979 25.8159 6.42994 25.8159 5.80614C25.8159 5.18234 25.336 4.7025 24.7122 4.7025C24.0884 4.7025 23.6086 5.18234 23.6086 5.80614C23.6086 6.42994 24.0884 6.90979 24.7122 6.90979ZM19.3379 1.10365C19.3379 1.72745 18.8581 2.20729 18.2343 2.20729C17.6105 2.20729 17.1306 1.72745 17.1306 1.10365C17.1306 0.479846 17.6105 0 18.2343 0C18.8101 0 19.3379 0.479846 19.3379 1.10365ZM39.4435 13.4357C39.4435 10.2687 41.8907 7.8215 45.1057 7.8215C46.0654 7.8215 47.0731 8.06142 47.9368 8.54127C48.8005 9.02111 49.5203 9.6929 50.0001 10.5566L48.1287 11.7083C47.8408 11.1324 47.4089 10.7006 46.8811 10.3647C46.3533 10.0288 45.7295 9.88484 45.1057 9.88484C43.0903 9.88484 41.6028 11.4683 41.6028 13.4357C41.6028 15.3551 43.0903 16.9386 45.0577 16.9386C45.7295 16.9386 46.3533 16.7466 46.9291 16.4107C47.5049 16.0749 47.9368 15.547 48.1767 14.9232L50.1441 15.9789C49.6642 16.8906 48.9445 17.7063 48.0807 18.2342C47.169 18.762 46.1613 19.0499 45.1057 19.0499C41.7947 19.0499 39.4435 16.5547 39.4435 13.4357ZM54.0788 7.96545V18.906H61.3245V16.8426H56.2381V7.96545H54.0788ZM65.4992 18.906V7.96545H72.9368V9.93282H67.6585V12.38H71.9771V14.3954H67.6585V16.8906H72.9368V18.906H65.4992ZM80.9982 7.96545L76.8235 18.906H79.0308L79.7506 16.9386H84.3571L85.0769 18.906H87.2842L83.1095 7.96545H80.9982ZM82.0539 10.6526L83.6374 15.0192H80.4704L82.0539 10.6526ZM93.3782 13.5317V9.93282H95.5375C96.8811 9.93282 97.6009 10.6046 97.6009 11.7083C97.6009 12.6679 96.9291 13.5317 95.5375 13.5317H93.3782ZM95.7295 7.96545H91.2669V18.906H93.3782V15.4511H95.8734L97.6489 18.906H100.048L97.8888 14.9232C98.4646 14.6353 98.9924 14.1555 99.3283 13.5797C99.6642 13.0038 99.8562 12.3321 99.8082 11.7083C99.7602 9.59693 98.2727 7.96545 95.7295 7.96545Z" fill="#080808"/>
</g>
</g>
<defs>
<clipPath id="clip0_11248_708">
<rect width="100" height="26.8714" fill="white"/>
</clipPath>
<clipPath id="clip1_11248_708">
<rect width="100" height="26.8714" fill="white"/>
</clipPath>
</defs>
</svg>
