<svg width="117" height="24" viewBox="0 0 117 24" fill="none" xmlns="http://www.w3.org/2000/svg">
<g clip-path="url(#clip0_1239_7135)">
<path d="M13.572 4.92592L6.786 9.25492L13.572 13.5839L6.786 17.9129L0 13.5605L6.786 9.23152L0 4.92592L6.786 0.596924L13.572 4.92592ZM6.7509 19.3052L13.5369 14.9762L20.3229 19.3052L13.5369 23.6342L6.7509 19.3052ZM13.572 13.5605L20.358 9.23152L13.572 4.92592L20.3229 0.596924L27.1089 4.92592L20.3229 9.25492L27.1089 13.5839L20.3229 17.9129L13.572 13.5605Z" fill="#080808"/>
<path d="M32.4324 4.92565H37.9197C41.418 4.92565 44.3079 6.94975 44.3079 11.5713V12.5424C44.3079 17.199 41.6052 19.2933 38.025 19.2933H32.4324V4.92565ZM35.4978 7.53475V16.6725H37.8495C39.8385 16.6725 41.1723 15.3738 41.1723 12.4839V11.7234C41.1723 8.83345 39.7683 7.53475 37.7442 7.53475H35.4978ZM45.9342 7.67515H48.3912L48.789 10.3779C49.257 8.54095 50.4504 7.55815 52.6149 7.55815H53.3754V10.6587H52.1118C49.6197 10.6587 49.0113 11.5245 49.0113 13.9815V19.3284H45.981V7.67515H45.9342ZM53.9838 13.7358V13.4082C53.9838 9.51205 56.4759 7.38265 59.8689 7.38265C63.3321 7.38265 65.754 9.51205 65.754 13.4082V13.7358C65.754 17.5617 63.4023 19.6209 59.8689 19.6209C56.1132 19.5858 53.9838 17.5734 53.9838 13.7358ZM62.6535 13.7007V13.4082C62.6535 11.2437 61.5654 9.94495 59.8338 9.94495C58.1373 9.94495 57.0141 11.1384 57.0141 13.4082V13.7007C57.0141 15.795 58.1022 16.9884 59.8338 16.9884C61.5654 16.9533 62.6535 15.795 62.6535 13.7007ZM67.3452 7.67515H69.8724L70.1649 9.87475C70.7733 8.40055 72.072 7.38265 73.9908 7.38265C76.9509 7.38265 78.9048 9.51205 78.9048 13.455V13.7826C78.9048 17.6085 76.7403 19.6326 73.9908 19.6326C72.1539 19.6326 70.8903 18.8019 70.2702 17.4681V23.3532H67.3101L67.3452 7.67515ZM75.8277 13.7007V13.4433C75.8277 11.1267 74.6343 9.98005 73.0431 9.98005C71.3466 9.98005 70.2234 11.2788 70.2234 13.4433V13.6656C70.2234 15.7248 71.3115 17.0235 73.008 17.0235C74.7513 16.9884 75.8277 15.8769 75.8277 13.7007ZM83.3859 17.1756L83.1285 19.305H80.5311V3.77905H83.4912V9.73435C84.1464 8.21335 85.4451 7.38265 87.282 7.38265C90.0666 7.41775 92.1258 9.33655 92.1258 13.1976V13.5603C92.1258 17.4213 90.1719 19.6326 87.2118 19.6326C85.2579 19.5858 83.9943 18.6849 83.3859 17.1756ZM89.0136 13.5603V13.2678C89.0136 11.1384 87.8553 9.94495 86.229 9.94495C84.5676 9.94495 83.4093 11.2788 83.4093 13.3029V13.5603C83.4093 15.7248 84.5325 16.9884 86.1939 16.9884C87.9723 16.9884 89.0136 15.8769 89.0136 13.5603ZM93.4245 13.7358V13.4082C93.4245 9.51205 95.9166 7.38265 99.3096 7.38265C102.773 7.38265 105.195 9.51205 105.195 13.4082V13.7358C105.195 17.5617 102.808 19.6209 99.3096 19.6209C95.5539 19.5858 93.4245 17.5734 93.4245 13.7358ZM102.118 13.7007V13.4082C102.118 11.2437 101.029 9.94495 99.2979 9.94495C97.6014 9.94495 96.4782 11.1384 96.4782 13.4082V13.7007C96.4782 15.795 97.5663 16.9884 99.2979 16.9884C101.041 16.9533 102.118 15.795 102.118 13.7007ZM109.161 13.2678L105.078 7.67515H108.576L110.928 11.1735L113.314 7.67515H116.778L112.636 13.2327L117 19.305H113.572L110.904 15.444L108.307 19.305H104.727L109.161 13.2678Z" fill="#080808"/>
</g>
<defs>
<clipPath id="clip0_1239_7135">
<rect width="117" height="23.0373" fill="white" transform="translate(0 0.596924)"/>
</clipPath>
</defs>
</svg>
