<svg width="109" height="25" viewBox="0 0 109 25" fill="none" xmlns="http://www.w3.org/2000/svg">
<g clip-path="url(#clip0_1239_7031)">
<path d="M9.22023 9.13435C9.22023 10.2022 8.76846 11.1468 8.0292 11.886C7.2078 12.7074 6.01677 12.9128 6.01677 13.611C6.01677 14.5556 7.53636 14.2681 8.99435 15.7261C9.95949 16.6912 10.555 17.9644 10.555 19.4429C10.555 22.3589 8.21402 24.6794 5.27751 24.6794C2.34099 24.6794 0 22.361 0 19.445C0 17.9665 0.595516 16.6933 1.56066 15.7281C3.01865 14.2702 4.53824 14.5576 4.53824 13.613C4.53824 12.9148 3.34721 12.7095 2.52581 11.8881C1.78655 11.1488 1.33478 10.2042 1.33478 9.09533C1.33478 6.95968 3.08026 5.23474 5.2159 5.23474C5.6266 5.23474 5.99623 5.29635 6.30426 5.29635C6.8587 5.29635 7.14619 5.04993 7.14619 4.65976C7.14619 4.43387 7.04352 4.14638 7.04352 3.83836C7.04352 3.14017 7.63904 2.56519 8.35776 2.56519C9.07649 2.56519 9.65147 3.1607 9.65147 3.87943C9.65147 4.63922 9.05595 4.98832 8.60418 5.1526C8.23455 5.27581 7.94706 5.44009 7.94706 5.80972C7.94706 6.50586 9.22023 7.18352 9.22023 9.13435ZM8.80953 19.445C8.80953 17.412 7.31047 15.7692 5.27751 15.7692C3.24454 15.7692 1.74548 17.412 1.74548 19.445C1.74548 21.4574 3.24454 23.1208 5.27751 23.1208C7.31047 23.1208 8.80953 21.4554 8.80953 19.445ZM7.59797 9.09327C7.59797 7.79957 6.55068 6.73175 5.27751 6.73175C4.00433 6.73175 2.95705 7.79957 2.95705 9.09327C2.95705 10.387 4.00433 11.4548 5.27751 11.4548C6.55068 11.4548 7.59797 10.387 7.59797 9.09327Z" fill="#080808"/>
<path d="M16.6128 5.43807C17.2699 5.43807 17.7628 5.93091 17.7628 6.54696C17.7628 7.16301 17.2905 7.65585 16.6334 7.65585C15.9557 7.65585 15.5861 7.22462 14.9084 7.22462C14.2513 7.22462 13.7379 7.69692 13.7379 8.49779V14.9663C13.7379 15.4592 13.3477 15.8493 12.8549 15.8493C12.3826 15.8493 11.9924 15.4592 11.9924 14.9663V6.25947C11.9924 5.76663 12.3826 5.37646 12.8549 5.37646C13.7379 5.37646 13.5736 6.2184 14.4566 6.2184C15.2986 6.2184 15.6066 5.43807 16.6128 5.43807Z" fill="#080808"/>
<path d="M18.5227 10.6128C18.5227 7.512 20.6584 5.27368 23.5949 5.27368C26.285 5.27368 28.4206 7.24505 28.4206 9.93514C28.4206 10.5717 28.0099 11.003 27.4144 11.003H20.7405C20.453 11.003 20.3503 11.1056 20.3503 11.3315C20.3503 11.8449 20.761 12.7895 21.3771 13.4056C21.9931 14.0216 22.8351 14.3912 24.0261 14.3912C24.9091 14.3912 25.6894 14.0627 26.285 13.6314C26.4698 13.4877 26.6751 13.4056 26.8805 13.4056C27.3117 13.4056 27.6608 13.7957 27.6608 14.2064C27.6608 14.4528 27.5787 14.6582 27.3733 14.843C26.5108 15.5617 25.2993 15.9519 23.985 15.9519C20.8021 15.9519 18.5227 13.652 18.5227 10.6128ZM25.7921 7.65575C25.2171 7.08077 24.4779 6.79327 23.5949 6.79327C22.7119 6.79327 21.8905 7.14237 21.2949 7.73789C20.8226 8.21019 20.4941 8.82624 20.4941 9.23694C20.4941 9.4423 20.6173 9.52444 20.8842 9.52444H26.2233C26.4698 9.52444 26.593 9.4423 26.593 9.23694C26.593 8.7441 26.2028 8.06645 25.7921 7.65575Z" fill="#080808"/>
<path d="M30.1865 10.6128C30.1865 7.512 32.3222 5.27368 35.2587 5.27368C37.9488 5.27368 40.0844 7.24505 40.0844 9.93514C40.0844 10.5717 39.6737 11.003 39.0782 11.003H32.4043C32.1168 11.003 32.0141 11.1056 32.0141 11.3315C32.0141 11.8449 32.4248 12.7895 33.0409 13.4056C33.6569 14.0216 34.4989 14.3912 35.6899 14.3912C36.5729 14.3912 37.3533 14.0627 37.9488 13.6314C38.1336 13.4877 38.3389 13.4056 38.5443 13.4056C38.9755 13.4056 39.3246 13.7957 39.3246 14.2064C39.3246 14.4528 39.2425 14.6582 39.0371 14.843C38.1747 15.5617 36.9631 15.9519 35.6488 15.9519C32.4659 15.9519 30.1865 13.652 30.1865 10.6128ZM37.4559 7.65575C36.8809 7.08077 36.1417 6.79327 35.2587 6.79327C34.3757 6.79327 33.5543 7.14237 32.9588 7.73789C32.4864 8.21019 32.1579 8.82624 32.1579 9.23694C32.1579 9.4423 32.2811 9.52444 32.5481 9.52444H37.8872C38.1336 9.52444 38.2568 9.4423 38.2568 9.23694C38.2568 8.7441 37.8666 8.06645 37.4559 7.65575Z" fill="#080808"/>
<path d="M50.3725 15.8492C49.8797 15.8492 49.4895 15.4591 49.4895 14.9662V9.38069C49.4895 7.9227 48.3396 6.81381 46.8611 6.81381C45.362 6.81381 44.212 7.94324 44.212 9.38069V14.9662C44.212 15.4591 43.8219 15.8492 43.329 15.8492C42.8567 15.8492 42.4666 15.4591 42.4666 14.9662V6.23883C42.4666 5.76652 42.8567 5.37636 43.3085 5.37636C44.171 5.37636 44.1299 6.15669 44.5817 6.15669C45.0334 6.15669 45.6495 5.27368 47.2512 5.27368C49.4895 5.27368 51.235 7.14237 51.235 9.38069V14.9662C51.235 15.4591 50.8448 15.8492 50.3725 15.8492Z" fill="#080808"/>
<path d="M62.1594 15.8491C61.6666 15.8491 61.2764 15.4589 61.2764 14.9661V9.38052C61.2764 7.92254 60.1264 6.81364 58.6479 6.81364C57.1489 6.81364 55.9989 7.94307 55.9989 9.38052V14.9661C55.9989 15.4589 55.6087 15.8491 55.1159 15.8491C54.6436 15.8491 54.2534 15.4589 54.2534 14.9661V1.12544C54.2534 0.632597 54.6436 0.242432 55.1159 0.242432C55.6087 0.242432 55.9989 0.632597 55.9989 1.12544V5.66368C55.9989 5.9101 56.1016 6.05385 56.3685 6.05385C56.8203 6.05385 57.4363 5.27352 59.0381 5.27352C61.2764 5.27352 63.0219 7.14221 63.0219 9.38052V14.9661C63.0219 15.4589 62.6317 15.8491 62.1594 15.8491Z" fill="#080808"/>
<path d="M65.4226 10.6128C65.4226 7.63521 67.8047 5.27368 70.8028 5.27368C73.8009 5.27368 76.183 7.63521 76.183 10.6128C76.183 13.5904 73.8009 15.9519 70.8028 15.9519C67.8067 15.9519 65.4226 13.5904 65.4226 10.6128ZM74.4395 10.6128C74.4395 8.53875 72.8994 6.83434 70.8048 6.83434C68.7308 6.83434 67.1907 8.53875 67.1907 10.6128C67.1907 12.6868 68.7308 14.3912 70.8048 14.3912C72.8994 14.3912 74.4395 12.6868 74.4395 10.6128Z" fill="#080808"/>
<path d="M79.4479 5.37646C79.9408 5.37646 80.3309 5.76663 80.3309 6.25947V11.845C80.3309 13.303 81.4809 14.4119 82.9594 14.4119C84.4585 14.4119 85.6084 13.2825 85.6084 11.845V6.25947C85.6084 5.76663 85.9986 5.37646 86.4914 5.37646C86.9637 5.37646 87.3539 5.76663 87.3539 6.25947V14.9869C87.3539 15.4592 86.9637 15.8493 86.512 15.8493C85.6495 15.8493 85.6906 15.069 85.2388 15.069C84.787 15.069 84.171 15.952 82.5692 15.952C80.3309 15.952 78.5854 14.0833 78.5854 11.845V6.25947C78.5875 5.76663 78.9756 5.37646 79.4479 5.37646Z" fill="#080808"/>
<path d="M90.4547 15.1921C90.0646 14.9457 89.7976 14.6993 89.7976 14.227C89.7976 13.7752 90.1467 13.4261 90.5779 13.4261C91.0913 13.4261 91.3172 13.7341 91.7484 13.96C92.2823 14.268 92.8984 14.4323 93.6582 14.4323C95.0546 14.4323 95.7528 13.7957 95.7528 13.0154C95.7528 11.9065 94.726 11.7011 93.3296 11.3315C91.6047 10.8797 89.9413 10.3664 89.9413 8.37447C89.9413 6.60846 91.2967 5.27368 93.6993 5.27368C94.6439 5.27368 95.5269 5.5201 96.2251 5.95134C96.4715 6.09508 96.7179 6.40311 96.7179 6.7522C96.7179 7.20398 96.3483 7.59414 95.876 7.59414C95.568 7.59414 95.3215 7.38879 95.0135 7.18344C94.7055 6.97809 94.2537 6.79327 93.6377 6.79327C92.2618 6.79327 91.6663 7.38879 91.6663 8.18966C91.6663 9.23694 92.6725 9.48337 94.11 9.83246C95.7938 10.2432 97.4572 10.7771 97.4572 12.81C97.4572 14.5761 96.1429 15.9519 93.6171 15.9519C92.385 15.9519 91.2761 15.7055 90.4547 15.1921Z" fill="#080808"/>
<path d="M99.1001 10.6128C99.1001 7.512 101.236 5.27368 104.172 5.27368C106.862 5.27368 108.998 7.24505 108.998 9.93514C108.998 10.5717 108.587 11.003 107.992 11.003H101.318C101.03 11.003 100.928 11.1056 100.928 11.3315C100.928 11.8449 101.338 12.7895 101.954 13.4056C102.571 14.0216 103.412 14.3912 104.603 14.3912C105.486 14.3912 106.267 14.0627 106.862 13.6314C107.047 13.4877 107.253 13.4056 107.458 13.4056C107.889 13.4056 108.238 13.7957 108.238 14.2064C108.238 14.4528 108.156 14.6582 107.951 14.843C107.088 15.5617 105.877 15.9519 104.562 15.9519C101.382 15.9519 99.1001 13.652 99.1001 10.6128ZM106.372 7.65575C105.797 7.08077 105.057 6.79327 104.174 6.79327C103.291 6.79327 102.47 7.14237 101.874 7.73789C101.402 8.21019 101.074 8.82624 101.074 9.23694C101.074 9.4423 101.197 9.52444 101.464 9.52444H106.803C107.049 9.52444 107.172 9.4423 107.172 9.23694C107.172 8.7441 106.782 8.06645 106.372 7.65575Z" fill="#080808"/>
</g>
<defs>
<clipPath id="clip0_1239_7031">
<rect width="108.998" height="24.437" fill="white" transform="translate(0 0.242432)"/>
</clipPath>
</defs>
</svg>
