<svg width="118" height="19" viewBox="0 0 118 19" fill="none" xmlns="http://www.w3.org/2000/svg">
<g clip-path="url(#clip0_13216_3245)">
<path d="M2.33819 13.9121C1.48827 13.9121 0.707259 13.4757 0.293785 12.7406C-0.11969 12.0285 -0.0967191 11.1556 0.362697 10.4665L4.58933 4.01171C5.02577 3.29962 5.82975 2.88614 6.67967 2.90911C7.52959 2.93208 8.3106 3.3915 8.7011 4.12657C9.09161 4.86163 9.04566 5.73452 8.58625 6.40068L4.33665 12.8555C3.9002 13.4987 3.14217 13.9121 2.33819 13.9121Z" fill="#080808"/>
<path d="M9.52805 13.9121C8.67813 13.9121 7.89713 13.4756 7.48365 12.7635C7.07018 12.0514 7.09315 11.1786 7.55256 10.4894L11.7792 4.03464C12.2156 3.32254 12.9966 2.8861 13.8695 2.90907C14.7424 2.93204 15.5005 3.39145 15.891 4.12652C16.2815 4.86159 16.2355 5.73448 15.7302 6.4236L11.5035 12.8554C11.0901 13.4986 10.332 13.9121 9.52805 13.9121Z" fill="#080808"/>
<path d="M16.5571 13.9121C17.8435 13.9121 18.9001 12.8555 18.9001 11.5691C18.9001 10.2827 17.8435 9.22607 16.5571 9.22607C15.2708 9.22607 14.2141 10.2827 14.2141 11.5691C14.2141 12.8784 15.2478 13.9121 16.5571 13.9121Z" fill="#080808"/>
<path d="M35.8985 3.48291C37.1849 3.48291 38.1956 3.87341 38.9537 4.65442C39.7117 5.43543 40.1022 6.51506 40.1022 7.89331V13.9117H36.9552V8.30678C36.9552 7.64063 36.7714 7.13527 36.4269 6.76774C36.0823 6.4002 35.5999 6.21644 34.9797 6.21644C34.3595 6.21644 33.8771 6.4002 33.5096 6.76774C33.165 7.13527 33.0042 7.64063 33.0042 8.30678V13.9117H29.8572V8.30678C29.8572 7.64063 29.6735 7.13527 29.3289 6.76774C28.9843 6.4002 28.5019 6.21644 27.8817 6.21644C27.2615 6.21644 26.7791 6.4002 26.4116 6.76774C26.067 7.13527 25.9062 7.64063 25.9062 8.30678V13.9117H22.7363V3.59776H25.9062V4.88413C26.2278 4.44768 26.6413 4.10312 27.1696 3.87341C27.675 3.62074 28.2722 3.48291 28.9154 3.48291C29.6964 3.48291 30.3855 3.64371 30.9828 3.98827C31.603 4.30986 32.0854 4.79225 32.43 5.41246C32.7975 4.83819 33.2799 4.37877 33.9001 4.03421C34.4973 3.66668 35.1635 3.48291 35.8985 3.48291Z" fill="#080808"/>
<path d="M46.4422 14.0495C45.4314 14.0495 44.5126 13.8427 43.7086 13.4063C42.9047 12.9699 42.2844 12.3496 41.8021 11.5686C41.3426 10.7647 41.1129 9.82286 41.1129 8.7662C41.1129 7.70954 41.3426 6.76774 41.825 5.98673C42.2844 5.18275 42.9276 4.56254 43.7546 4.12609C44.5586 3.68965 45.4774 3.48291 46.4881 3.48291C47.4988 3.48291 48.4177 3.68965 49.2216 4.12609C50.0256 4.56254 50.6688 5.18275 51.1512 5.98673C51.6106 6.79071 51.8633 7.70954 51.8633 8.7662C51.8633 9.82286 51.6106 10.7647 51.1512 11.5686C50.6918 12.3726 50.0256 12.9928 49.2216 13.4063C48.3717 13.8427 47.4529 14.0495 46.4422 14.0495ZM46.4422 11.316C47.0394 11.316 47.5677 11.0862 47.9812 10.6498C48.4177 10.2134 48.6244 9.57017 48.6244 8.74323C48.6244 7.91628 48.4177 7.29607 48.0042 6.83665C47.5907 6.4002 47.0853 6.1705 46.4881 6.1705C45.8679 6.1705 45.3625 6.4002 44.9491 6.83665C44.5356 7.27309 44.3518 7.89331 44.3518 8.74323C44.3518 9.57017 44.5586 10.1904 44.9491 10.6498C45.3396 11.0862 45.8449 11.316 46.4422 11.316Z" fill="#080808"/>
<path d="M59.2369 3.48291C60.4544 3.48291 61.3962 3.87341 62.1083 4.65442C62.8433 5.43543 63.2109 6.49209 63.2109 7.87034V13.8887H60.0639V8.30678C60.0639 7.61766 59.8801 7.08933 59.5355 6.69882C59.168 6.30832 58.7086 6.12455 58.0884 6.12455C57.4911 6.12455 57.0087 6.30832 56.6412 6.69882C56.2737 7.08933 56.1129 7.61766 56.1129 8.30678V13.9117H52.9429V3.59776H56.1129V4.95304C56.4345 4.49363 56.8709 4.14906 57.3992 3.87341C57.9505 3.62074 58.5707 3.48291 59.2369 3.48291Z" fill="#080808"/>
<path d="M64.2216 8.72037C64.2216 7.66371 64.4283 6.72191 64.8188 5.9409C65.2323 5.13692 65.7836 4.51671 66.4727 4.10324C67.1618 3.66679 67.9428 3.46005 68.7698 3.46005C69.4589 3.46005 70.0561 3.59788 70.6074 3.8965C71.1817 4.17215 71.6182 4.56265 71.9398 5.04504V0.244141H75.1097V13.9118H71.9398V12.4416C71.6411 12.924 71.2277 13.3375 70.6764 13.6361C70.1251 13.9347 69.5048 14.0726 68.7698 14.0726C67.9199 14.0726 67.1618 13.8658 66.4727 13.4294C65.7836 12.9929 65.2323 12.3727 64.8188 11.5688C64.4283 10.7188 64.2216 9.77703 64.2216 8.72037ZM71.9398 8.74334C71.9398 7.96233 71.71 7.34212 71.2736 6.8827C70.8372 6.42329 70.3088 6.19358 69.6886 6.19358C69.0684 6.19358 68.5171 6.42329 68.0807 6.8827C67.6442 7.31915 67.4375 7.93936 67.4375 8.72037C67.4375 9.50138 67.6442 10.1446 68.0807 10.604C68.5171 11.0634 69.0684 11.2931 69.6886 11.2931C70.3088 11.2931 70.8372 11.0634 71.2736 10.604C71.733 10.1446 71.9398 9.54732 71.9398 8.74334Z" fill="#080808"/>
<path d="M76.2123 8.72077C76.2123 7.66411 76.4191 6.7223 76.8096 5.9413C77.223 5.13732 77.7743 4.51711 78.4635 4.10363C79.1526 3.66719 79.9336 3.46045 80.7606 3.46045C81.4956 3.46045 82.1158 3.59827 82.6671 3.89689C83.2184 4.19551 83.6549 4.58602 83.9305 5.06841V3.59827H87.1005V13.9122H83.9305V12.465C83.6319 12.9474 83.1955 13.3379 82.6442 13.6365C82.0929 13.9351 81.4726 14.073 80.7376 14.073C79.9106 14.073 79.1296 13.8662 78.4405 13.4298C77.7514 12.9933 77.2001 12.3731 76.7866 11.5691C76.3961 10.7192 76.2123 9.77742 76.2123 8.72077ZM83.9305 8.74374C83.9305 7.96273 83.7008 7.34252 83.2644 6.8831C82.8279 6.42368 82.2996 6.19398 81.6794 6.19398C81.0592 6.19398 80.5079 6.42368 80.0714 6.8831C79.635 7.31955 79.4282 7.93976 79.4282 8.72077C79.4282 9.50177 79.635 10.145 80.0714 10.6044C80.5079 11.0638 81.0592 11.2935 81.6794 11.2935C82.2996 11.2935 82.8279 11.0638 83.2644 10.6044C83.7008 10.145 83.9305 9.54771 83.9305 8.74374Z" fill="#080808"/>
<path d="M99.3439 3.59817L92.8891 18.8048H89.4895L91.8554 13.5675L87.6518 3.59817H91.1893L93.5783 10.03L95.9442 3.5752L99.3439 3.59817Z" fill="#080808"/>
<path d="M97.4374 14.0266C97.1617 14.0266 96.932 13.9347 96.7253 13.774C96.5415 13.5902 96.4496 13.3834 96.4496 13.1078C96.4496 12.8551 96.5415 12.6254 96.7253 12.4646C96.909 12.2808 97.1387 12.189 97.4374 12.189C97.713 12.189 97.9427 12.2808 98.1265 12.4646C98.3102 12.6254 98.4021 12.8551 98.4021 13.1078C98.4021 13.3605 98.3102 13.5902 98.1265 13.774C97.9427 13.9347 97.713 14.0266 97.4374 14.0266Z" fill="#080808"/>
<path d="M99.7115 11.638C99.7115 11.1556 99.8033 10.7421 100.01 10.3746C100.217 10.0071 100.469 9.73141 100.814 9.54764C101.159 9.34091 101.549 9.24902 102.009 9.24902C102.583 9.24902 103.065 9.38685 103.433 9.68547C103.8 9.96112 104.076 10.3746 104.191 10.88H102.927C102.858 10.6732 102.744 10.5124 102.583 10.4205C102.422 10.3057 102.238 10.2368 102.009 10.2368C101.664 10.2368 101.411 10.3516 101.205 10.6043C100.998 10.834 100.906 11.1786 100.906 11.638C100.906 12.0744 100.998 12.419 101.205 12.6717C101.411 12.9014 101.664 13.0392 102.009 13.0392C102.491 13.0392 102.79 12.8325 102.927 12.396H104.191C104.053 12.9014 103.8 13.2919 103.433 13.5905C103.065 13.8891 102.583 14.027 102.009 14.027C101.572 14.027 101.159 13.9351 100.814 13.7283C100.469 13.5216 100.194 13.2459 100.01 12.9014C99.8033 12.5338 99.7115 12.0974 99.7115 11.638Z" fill="#080808"/>
<path d="M106.924 14.027C106.488 14.027 106.074 13.9351 105.73 13.7284C105.385 13.5216 105.087 13.246 104.88 12.8784C104.673 12.5109 104.581 12.0974 104.581 11.615C104.581 11.1327 104.696 10.7192 104.903 10.3516C105.11 9.98411 105.408 9.70846 105.776 9.52469C106.143 9.31796 106.534 9.22607 106.993 9.22607C107.453 9.22607 107.843 9.31796 108.211 9.52469C108.578 9.70846 108.854 10.0071 109.061 10.3516C109.267 10.7192 109.382 11.1327 109.382 11.615C109.382 12.0974 109.267 12.5109 109.061 12.8784C108.854 13.246 108.555 13.5216 108.188 13.7284C107.797 13.9121 107.384 14.027 106.924 14.027ZM106.924 12.9933C107.131 12.9933 107.338 12.9473 107.522 12.8325C107.705 12.7176 107.866 12.5798 107.981 12.3731C108.096 12.1663 108.142 11.9137 108.142 11.615C108.142 11.1786 108.027 10.834 107.797 10.6043C107.567 10.3746 107.292 10.2368 106.947 10.2368C106.603 10.2368 106.327 10.3516 106.097 10.6043C105.868 10.834 105.753 11.1786 105.753 11.615C105.753 12.0515 105.868 12.396 106.074 12.6258C106.327 12.8784 106.603 12.9933 106.924 12.9933Z" fill="#080808"/>
<path d="M115.791 9.24902C116.365 9.24902 116.825 9.43279 117.169 9.77735C117.514 10.1219 117.698 10.6043 117.698 11.2245V13.9351H116.526V11.3853C116.526 11.0178 116.434 10.7421 116.25 10.5584C116.067 10.3746 115.814 10.2597 115.492 10.2597C115.171 10.2597 114.918 10.3516 114.734 10.5584C114.551 10.7421 114.459 11.0178 114.459 11.3853V13.9351H113.287V11.3853C113.287 11.0178 113.195 10.7421 113.012 10.5584C112.828 10.3746 112.575 10.2597 112.254 10.2597C111.932 10.2597 111.679 10.3516 111.473 10.5584C111.289 10.7421 111.197 11.0178 111.197 11.3853V13.9351H110.025V9.31793H111.197V9.86923C111.335 9.68547 111.541 9.52467 111.771 9.40982C112.001 9.29496 112.276 9.24902 112.552 9.24902C112.92 9.24902 113.241 9.31794 113.517 9.47873C113.793 9.63953 114.022 9.84626 114.183 10.1219C114.344 9.84626 114.551 9.63953 114.826 9.47873C115.148 9.31794 115.469 9.24902 115.791 9.24902Z" fill="#080808"/>
</g>
<defs>
<clipPath id="clip0_13216_3245">
<rect width="117.698" height="18.5607" fill="white" transform="translate(0 0.244141)"/>
</clipPath>
</defs>
</svg>
