<svg width="110" height="17" viewBox="0 0 110 17" fill="none" xmlns="http://www.w3.org/2000/svg">
<g clip-path="url(#clip0_11566_694)">
<g clip-path="url(#clip1_11566_694)">
<path d="M3.0926 7.43827V15.7514H0V0.851897H0.0590345L9.55688 9.38238V1.07059H12.6696V15.9701H12.6106L3.0926 7.43827ZM15.1665 8.41099C15.1665 3.94718 18.4577 0.812988 23.0972 0.812988C24.565 0.812988 25.7337 1.07059 26.7252 1.52677V4.52277C25.7739 4.00756 24.5436 3.72983 23.0972 3.72983C20.0838 3.72983 18.3195 5.61491 18.3195 8.41233C18.3195 11.2098 20.0838 13.0948 23.0972 13.0948C24.5449 13.0948 25.7739 12.8171 26.7252 12.3006V15.2764C25.7337 15.7527 24.5637 16.0103 23.0972 16.0103C18.4577 16.0103 15.1665 12.856 15.1665 8.41233V8.41099ZM29.6608 1.07059H34.4386C38.0665 1.07059 40.0696 3.09387 40.0696 6.08987C40.0696 7.99507 39.1774 9.54204 37.2346 10.2759L40.5258 15.7514H37.016L32.7534 8.41099H34.4976C36.0244 8.41099 36.9368 7.47852 36.9368 6.08987C36.9368 4.70121 35.9855 3.78886 34.4788 3.78886H32.7534V15.7527H29.6608V1.07059ZM44.7495 1.07059H48.1601L51.8282 9.24418L55.4763 1.07059H58.8869L51.8484 15.9902H51.7692L44.7495 1.07059ZM80.26 9.97809L75.0838 1.07059H78.6124L81.8043 6.80365L84.9962 1.07059H88.5249L83.35 9.97809V15.7514H80.2574V9.97809H80.26ZM90.732 1.07059H93.8246V15.7514H90.732V1.07059ZM103 10.6141L99.7293 15.7527H96.041L101.078 8.25401L96.2597 1.07193H99.948L103.022 5.87251L106.096 1.07193H109.784L104.946 8.23389L110.001 15.7527H106.313L103.002 10.6141H103Z" fill="#080808"/>
<path d="M66.4755 2.43728C66.4755 3.42611 65.6745 4.2271 64.6857 4.2271C63.6969 4.2271 62.8959 3.42611 62.8959 2.43728C62.8959 1.44845 63.6982 0.647461 64.6857 0.647461C65.6745 0.647461 66.4755 1.44845 66.4755 2.43728ZM59.3967 5.93641C59.3967 6.92524 60.1977 7.72623 61.1865 7.72623C62.1754 7.72623 62.9764 6.92524 62.9764 5.93641C62.9764 4.94759 62.1754 4.14659 61.1865 4.14659C60.1977 4.14659 59.3967 4.94759 59.3967 5.93641ZM59.3967 10.8846C59.3967 11.8734 60.1977 12.6744 61.1865 12.6744C62.1754 12.6744 62.9764 11.8734 62.9764 10.8846C62.9764 9.89575 62.1754 9.09476 61.1865 9.09476C60.1977 9.09476 59.3967 9.89575 59.3967 10.8846ZM64.6857 16.1735C65.6745 16.1735 66.4755 15.3725 66.4755 14.3837C66.4755 13.3949 65.6745 12.5939 64.6857 12.5939C63.6969 12.5939 62.8959 13.3949 62.8959 14.3837C62.8959 15.3725 63.6969 16.1735 64.6857 16.1735ZM69.6338 16.1735C70.6227 16.1735 71.4237 15.3725 71.4237 14.3837C71.4237 13.3949 70.6227 12.5939 69.6338 12.5939C68.645 12.5939 67.844 13.3949 67.844 14.3837C67.844 15.3725 68.645 16.1735 69.6338 16.1735ZM74.9228 10.8846C74.9228 9.89575 74.1218 9.09476 73.133 9.09476C72.1441 9.09476 71.3432 9.89575 71.3432 10.8846C71.3432 11.8734 72.1441 12.6744 73.133 12.6744C74.1218 12.6744 74.9228 11.8734 74.9228 10.8846ZM74.9228 5.93641C74.9228 4.94759 74.1218 4.14659 73.133 4.14659C72.1441 4.14659 71.3432 4.94759 71.3432 5.93641C71.3432 6.92524 72.1441 7.72623 73.133 7.72623C74.1218 7.72623 74.9228 6.92524 74.9228 5.93641ZM69.6352 0.647461C68.6464 0.647461 67.8454 1.44845 67.8454 2.43728C67.8454 3.42611 68.6464 4.2271 69.6352 4.2271C70.624 4.2271 71.425 3.42611 71.425 2.43728C71.425 1.44845 70.6227 0.647461 69.6352 0.647461Z" fill="#080808"/>
</g>
</g>
<defs>
<clipPath id="clip0_11566_694">
<rect width="110" height="15.5261" fill="white" transform="translate(0 0.647461)"/>
</clipPath>
<clipPath id="clip1_11566_694">
<rect width="110" height="15.5261" fill="white" transform="translate(0 0.647461)"/>
</clipPath>
</defs>
</svg>
