<svg width="125" height="32" viewBox="0 0 125 32" fill="none" xmlns="http://www.w3.org/2000/svg">
<g clip-path="url(#clip0_1239_7069)">
<path d="M21.2815 21.8932C19.5611 22.146 18.6998 20.6914 19.2644 19.436C19.7334 18.3919 19.9646 17.2678 19.9646 16.0716C19.9644 14.8748 19.7521 13.7725 19.2823 12.7279C18.8656 11.7102 19.5641 9.9994 21.285 10.2517C22.2082 10.3877 22.9267 9.51014 22.9267 8.29728C22.9267 7.0861 22.2082 5.91458 21.285 5.67187C20.3157 5.41827 19.4945 6.27354 19.4945 7.59531C19.4945 9.89938 18.2457 10.8286 17.2374 9.96207C16.3477 9.19516 15.3088 8.70062 14.117 8.5079C12.8497 8.30331 11.6049 8.50007 10.4939 9.01609C9.33284 9.44044 7.1498 8.00906 7.1498 5.06489C7.1498 3.34933 5.70068 1.57794 3.80095 1.07959C1.76706 0.546129 0.00847872 1.65953 0.00773057 3.60242C0.00822932 5.54683 1.76681 7.38059 3.80044 7.67966C6.82112 8.12321 8.23682 10.0502 7.67074 11.469C6.83334 12.72 6.32361 14.2918 6.32338 16.0726C6.32338 17.7662 6.78845 19.2676 7.55351 20.4878C8.08098 21.7075 6.91389 23.997 3.79446 24.4557C1.75983 24.7532 0.000498747 26.5875 0 28.5314C0 30.4751 1.75933 31.5887 3.79399 31.0555C5.69345 30.5572 7.14334 28.7863 7.14334 27.0702V27.0694C7.14402 24.2082 8.94581 22.5812 10.338 23.0478C11.4884 23.6204 12.7894 23.8518 14.1175 23.6368C15.3033 23.4454 16.3307 22.9657 17.2177 22.2051C18.0446 21.5479 19.4908 22.2458 19.4908 24.5494C19.4908 25.8709 20.312 26.7285 21.2818 26.4734C22.2047 26.2306 22.9234 25.0598 22.9234 23.8475C22.9234 22.635 22.2045 21.7573 21.2815 21.8932ZM14.0614 20.7997C11.6196 21.0786 9.41862 18.9758 9.41862 16.0723C9.41862 13.1694 11.6196 11.0673 14.0614 11.3462C16.2455 11.5956 17.8536 13.7016 17.8536 16.0716C17.8536 18.4431 16.2455 20.5501 14.0614 20.7997Z" fill="#080808"/>
<path d="M21.801 11.5235H24.294V12.598L24.4183 12.4548L24.5766 12.2578C25.1601 11.6311 25.779 11.3447 26.5748 11.3091H26.8755V13.6005C26.7514 13.5649 26.6276 13.547 26.504 13.5291C25.0897 13.4033 24.4002 14.1383 24.4002 15.5528V20.7987H21.801V11.5235Z" fill="#080808"/>
<path d="M29.5051 11.3981C28.9922 11.4342 28.5327 11.4696 28.0024 11.559V13.5645C28.1435 13.5289 28.2859 13.5112 28.4265 13.4933C29.4168 13.3675 30.3006 13.3675 30.8662 13.4395C32.3686 13.6189 32.9699 14.2099 32.9699 15.1588V15.803C32.4928 15.4446 31.9267 15.2304 31.0779 15.1402C30.6711 15.0866 30.265 15.1046 29.8584 15.1588C27.8787 15.4087 26.764 16.6264 26.7296 18.0773C26.6582 19.5635 27.9672 20.9418 30.1771 20.9418C31.1489 20.9598 31.9088 20.709 32.6162 20.2078C32.7048 20.1361 32.8112 20.0469 32.8988 19.9752V20.7989H35.4627V15.3197C35.4623 12.6517 33.8002 11.2372 29.5051 11.3981ZM32.4217 18.9901C32.1924 19.152 31.9088 19.2589 31.5023 19.3129C31.2906 19.3486 31.0781 19.3486 30.8487 19.3309C29.8407 19.2412 29.3272 18.7035 29.311 18.0417C29.3637 17.1998 30.1414 16.5731 31.5023 16.7527C31.9973 16.8058 32.4043 17.0033 32.6522 17.2359C33.1464 17.7014 33.0756 18.561 32.4217 18.9901Z" fill="#080808"/>
<path d="M37.4124 11.5232H39.9049V12.5265C39.9752 12.4545 40.0472 12.3828 40.1167 12.3111C40.8414 11.6669 41.5843 11.3626 42.4681 11.3447C44.6951 11.2906 46.0745 12.8124 46.0745 15.4631V20.799H43.4762V15.8028C43.4938 14.4416 43.0161 13.7437 42.0789 13.4931C40.7887 13.1708 40.0103 13.8866 40.0103 15.3196V20.7987H37.4124V11.5232Z" fill="#080808"/>
<path d="M54.6983 11.5232V12.5977C53.6024 11.2726 51.2689 11.0044 49.4835 12.2936C48.5108 12.9917 47.8389 14.066 47.6443 15.3195C47.5922 15.6237 47.5743 15.9107 47.5743 16.2147C47.5561 16.5014 47.5743 16.8058 47.6088 17.0922C47.8034 18.7219 48.723 19.9929 50.1017 20.6199C51.8517 21.4259 53.6378 21.0141 54.5747 19.9219V20.6024C54.5747 21.9623 53.726 22.7501 51.8517 22.7865C51.3571 22.8042 50.8625 22.7327 50.3672 22.5893V24.8815C50.9152 24.9707 51.4453 25.007 51.9753 25.007C55.4757 24.9537 57.1916 23.3412 57.1916 20.7449V11.5232H54.6983ZM54.6983 16.5911C54.5571 17.8257 53.8855 18.5958 52.9132 18.7575C51.4987 19.0081 50.4027 18.1483 50.2257 16.5726C50.2085 16.4287 50.1905 16.3044 50.1905 16.1604C50.1905 16.0174 50.2088 15.8745 50.2257 15.7308C50.4027 14.2984 51.2328 13.5106 52.4537 13.5106C53.6726 13.5106 54.522 14.2984 54.6983 15.7492C54.7338 16.0177 54.7338 16.3044 54.6983 16.5911Z" fill="#080808"/>
<path d="M68.0804 16.1023C68.0335 13.384 66.2146 11.4484 63.6169 11.261C62.9838 11.223 62.3548 11.2981 61.7636 11.4969C61.5997 11.5527 61.4386 11.6212 61.2845 11.6924C59.6436 12.464 58.5034 14.1564 58.5034 16.1144C58.5034 17.7648 59.3119 19.219 60.5487 20.0982L60.5679 20.1101C61.021 20.4198 61.5406 20.667 62.1166 20.833C63.9673 21.3791 65.7271 20.8908 67.0943 19.466C67.175 19.3788 67.2338 19.3028 67.3142 19.2139L65.3372 17.8295C65.2889 17.8709 65.2568 17.9176 65.2082 17.9585C64.8369 18.3523 64.4757 18.5822 64.0774 18.6885C63.4129 18.884 62.7683 18.8236 62.2642 18.5269C61.5504 18.1293 61.1646 17.4185 61.2092 16.8164L68.0477 16.8573C68.0652 16.6014 68.0788 16.3627 68.0804 16.1023ZM61.3149 15.1692C61.3544 15.0318 61.3781 14.8894 61.4335 14.7567C61.7977 13.7454 62.6703 13.1447 63.6727 13.1794C64.7872 13.2097 65.5875 13.949 65.7254 14.9411L65.7541 15.0988L65.7585 15.2125L61.3149 15.1692Z" fill="#080808"/>
<path d="M68.8345 11.5237H69.8608V9.15991L71.1855 8.60498V11.5237H73.6436L73.3956 12.509H71.1862V17.397L71.2047 17.5579L71.222 18.256C71.2392 19.3487 71.9115 19.94 73.2899 19.8509C73.3956 19.8509 73.5024 19.8322 73.6088 19.8147V20.8527C73.5031 20.8705 73.3956 20.8883 73.2899 20.8883C70.6919 21.1039 69.8615 20.1903 69.8615 17.4326V12.509H68.676L68.8345 11.5237Z" fill="#080808"/>
<path d="M74.7554 8.35762L76.099 7.81836V13.0272C76.2574 12.795 76.4527 12.5796 76.6642 12.3833C77.178 11.8997 77.7966 11.5774 78.4848 11.4341C81.1544 10.861 83.1354 12.598 83.1354 15.4096V20.7992H81.7919V15.8566C81.7919 13.5821 80.7665 12.4366 78.9807 12.4722C77.1949 12.4907 76.099 13.6902 76.099 15.6235V20.7988H74.7554V8.35762Z" fill="#080808"/>
<path d="M107.011 11.5232H108.319V12.8308C108.371 12.759 108.408 12.6873 108.461 12.6156C109.097 11.7204 109.91 11.2728 110.97 11.2549C111.094 11.2549 111.218 11.2549 111.342 11.2728V12.5441C111.218 12.5264 111.077 12.5086 110.934 12.5086C110.122 12.4724 109.415 12.759 108.937 13.2961C108.531 13.7793 108.355 14.2809 108.355 15.1046V20.7987H107.011V11.5232Z" fill="#080808"/>
<path d="M123.314 8.09863C124.263 8.09863 125 8.84529 125 9.7753C125 10.7268 124.263 11.4631 123.304 11.4631C122.354 11.4631 121.598 10.7265 121.598 9.7753C121.598 8.84529 122.354 8.09863 123.304 8.09863H123.314ZM123.294 8.4359C122.566 8.4359 122.022 9.03931 122.022 9.77509C122.022 10.5217 122.566 11.115 123.314 11.115C124.041 11.1249 124.576 10.5217 124.576 9.77509C124.576 9.03901 124.041 8.4359 123.303 8.4359H123.294ZM123.041 10.6447H122.658V8.97816C122.809 8.94685 123.021 8.9163 123.294 8.9163C123.607 8.9163 123.748 8.96759 123.869 9.04937C123.96 9.1211 124.03 9.25424 124.03 9.4073C124.03 9.60153 123.889 9.74477 123.687 9.80585V9.82638C123.849 9.87764 123.94 10.0107 123.99 10.2355C124.04 10.4912 124.071 10.5935 124.111 10.6447H123.697C123.647 10.5836 123.616 10.4404 123.566 10.2461C123.536 10.0618 123.434 9.97989 123.222 9.97989H123.041V10.6447H123.041ZM123.051 9.70409H123.233C123.445 9.70409 123.617 9.63236 123.617 9.45856C123.617 9.30496 123.505 9.20298 123.263 9.20298C123.162 9.20298 123.092 9.2128 123.051 9.22345V9.70409Z" fill="#080808"/>
<path d="M101.169 11.2727C97.8277 10.7889 95.3882 12.9738 95.3882 16.1253C95.3882 19.2766 97.8277 21.4614 101.169 20.9777C103.678 20.6019 105.235 18.7214 105.235 16.1253C105.235 13.529 103.678 11.649 101.169 11.2727ZM100.938 19.8669C100.52 19.9404 100.102 19.9404 99.702 19.8669C97.8632 19.5529 96.6987 18.1157 96.6987 16.1251C96.6987 14.9268 97.099 13.9687 97.827 13.2862C98.4635 12.678 99.3193 12.3464 100.32 12.3464C101.32 12.3464 102.177 12.678 102.813 13.2862C103.376 13.8207 103.723 14.4842 103.869 15.3137C104.269 17.6734 103.013 19.4979 100.938 19.8669Z" fill="#080808"/>
<path d="M112.436 11.5205H113.78V16.5887C113.78 18.5402 114.433 19.4532 115.954 19.7394C116.36 19.8119 116.767 19.8119 117.174 19.7217C118.711 19.4351 119.418 18.5043 119.418 16.8748V11.5205H120.745V20.4022C120.745 22.9624 118.906 24.6459 115.158 24.4137C114.928 24.4137 114.717 24.3776 114.504 24.3592V23.2134C114.717 23.2498 114.928 23.2667 115.14 23.2852C118.057 23.4461 119.402 22.2473 119.402 20.1696V19.3277C119.331 19.4348 119.242 19.525 119.172 19.6144C118.376 20.5096 117.457 20.921 116.183 20.921C114.435 20.921 113.388 20.062 112.861 19.0988C112.777 18.9453 112.707 18.7503 112.649 18.5505C112.5 18.0395 112.436 17.4588 112.436 16.7879V11.5205Z" fill="#080808"/>
<path d="M93.9602 16.5093C93.9781 16.3103 93.9795 16.1057 93.9764 15.919C93.8545 13.0393 91.4163 10.9718 88.5808 11.3954C86.9156 11.6475 85.5767 12.7003 84.9463 14.2507L84.9531 14.2277C84.7217 14.8182 84.5967 15.479 84.5967 16.189C84.5967 18.5068 85.9251 20.2948 87.9575 20.8581L87.9602 20.8553C89.4582 21.2801 91.0767 21.028 92.3095 20.1508C92.6784 19.8838 93.0007 19.5846 93.2794 19.2362L92.2815 18.5255C92.2244 18.6025 92.1544 18.6568 92.1017 18.7164C90.8447 19.9402 89.173 20.2097 87.7947 19.4842C86.6869 18.9091 86.046 17.9102 85.9717 16.7169C85.973 16.643 85.9757 16.5694 85.9828 16.4782L93.9602 16.5093ZM86.1977 14.7728C86.7011 13.2797 87.9622 12.3724 89.4808 12.3942C90.9764 12.428 92.1683 13.3611 92.5474 14.7144C92.5987 14.8591 92.6291 15.0168 92.6419 15.1686L92.6676 15.3436L92.6757 15.5131L86.0575 15.477C86.0693 15.2388 86.1352 14.9971 86.1977 14.7728Z" fill="#080808"/>
<path d="M62.3621 31.1892H63.556V28.461H66.6705V27.384H63.556V25.8461H66.736V24.7695H62.3621V31.1892Z" fill="#080808"/>
<path d="M70.7744 24.7695H69.5808V31.1892H70.7744V24.7695Z" fill="#080808"/>
<path d="M73.4429 25.8461H75.3321V31.1892H76.526V25.8461H78.4152V24.7695H73.4429V25.8461Z" fill="#080808"/>
<path d="M85.4053 29.1446L82.3057 24.7905L82.2915 24.7695H81.0935V31.1892H82.2871V26.692L85.452 31.168L85.4672 31.1892H86.5989V24.7695H85.4053V29.1446Z" fill="#080808"/>
<path d="M89.8569 31.1892H94.2302V30.1125H91.0505V28.461H94.165V27.384H91.0505V25.8461H94.2302V24.7695H89.8569V31.1892Z" fill="#080808"/>
<path d="M99.5646 27.2913L99.5561 27.289C98.8433 27.1062 98.2274 26.9481 98.2274 26.4969C98.2274 26.0499 98.622 25.7612 99.2341 25.7612C99.9264 25.7612 100.555 26.0114 101.004 26.4664L101.044 26.507L101.733 25.6013L101.7 25.57C101.095 24.9759 100.297 24.6748 99.3274 24.6748C97.9821 24.6748 97.0054 25.4729 97.0054 26.5727C97.0054 27.9506 98.2554 28.2643 99.2588 28.5161L99.2733 28.5199C100.009 28.7129 100.643 28.8796 100.643 29.4052C100.643 29.7796 100.328 30.2168 99.4402 30.2168C98.4443 30.2168 97.7987 29.6808 97.5027 29.3613L97.4615 29.3165L96.7939 30.2524L96.822 30.2828C97.4389 30.9503 98.3281 31.3029 99.3926 31.3029C100.584 31.3029 101.856 30.777 101.856 29.3009C101.856 27.8819 100.586 27.5543 99.5646 27.2913Z" fill="#080808"/>
<path d="M107.055 27.2913L107.047 27.289C106.334 27.1062 105.718 26.9481 105.718 26.4969C105.718 26.0499 106.112 25.7612 106.725 25.7612C107.417 25.7612 108.045 26.0114 108.495 26.4664L108.534 26.507L109.223 25.6013L109.191 25.57C108.585 24.9759 107.787 24.6748 106.818 24.6748C105.473 24.6748 104.496 25.4729 104.496 26.5727C104.496 27.9506 105.746 28.2643 106.75 28.5161L106.764 28.5199C107.499 28.7129 108.134 28.8796 108.134 29.4052C108.134 29.7796 107.819 30.2168 106.931 30.2168C105.935 30.2168 105.289 29.6808 104.993 29.3613L104.952 29.3165L104.284 30.2524L104.312 30.2828C104.929 30.9503 105.819 31.3029 106.883 31.3029C108.074 31.3029 109.346 30.777 109.346 29.3009C109.346 27.8819 108.076 27.5543 107.055 27.2913Z" fill="#080808"/>
</g>
<defs>
<clipPath id="clip0_1239_7069">
<rect width="125" height="30.3567" fill="white" transform="translate(0 0.946289)"/>
</clipPath>
</defs>
</svg>
