<svg width="120" height="31" viewBox="0 0 120 31" fill="none" xmlns="http://www.w3.org/2000/svg">
<g clip-path="url(#clip0_11339_7342)">
<g clip-path="url(#clip1_11339_7342)">
<path fill-rule="evenodd" clip-rule="evenodd" d="M25.238 13.5432C25.3373 13.6514 25.4333 13.756 25.5231 13.8567C26.3862 14.615 26.9318 15.726 26.9318 16.9651C26.9318 19.2504 25.0784 21.103 22.7921 21.103C20.5058 21.103 18.6524 19.2504 18.6524 16.9651C18.6524 15.7287 19.1955 14.6197 20.0555 13.8615L20.0524 13.859C20.1487 13.7513 20.2524 13.6391 20.3598 13.5228C21.0742 12.7496 21.9576 11.7934 21.9576 10.7581C21.9576 9.72283 21.0745 8.76685 20.3602 7.99361C20.2526 7.87714 20.1488 7.76478 20.0524 7.65697C20.0532 7.65648 20.0539 7.65594 20.0545 7.6554L20.0555 7.65462C19.1955 6.89642 18.6524 5.78742 18.6524 4.55101C18.6524 2.26573 20.5058 0.413086 22.7921 0.413086C25.0784 0.413086 26.9318 2.26573 26.9318 4.55101C26.9318 5.79011 26.3862 6.90112 25.5231 7.65947C25.4333 7.76012 25.3373 7.86469 25.238 7.97289C24.5249 8.74971 23.6401 9.71353 23.6401 10.7581C23.6401 11.8026 24.5249 12.7664 25.238 13.5432ZM8.27931 16.965C8.27931 14.6797 6.42593 12.8271 4.13969 12.8271C1.85347 12.8271 6.68434e-05 14.6797 6.68434e-05 16.965C6.68434e-05 19.2504 1.85347 21.1031 4.13969 21.1031C6.42593 21.1031 8.27931 19.2504 8.27931 16.965ZM0 4.55108C0 6.83637 1.85341 8.68902 4.13962 8.68902C6.42602 8.68902 8.27941 6.83637 8.27941 4.55108C8.27941 2.2658 6.42602 0.413153 4.13962 0.413153C1.85341 0.413153 0 2.2658 0 4.55108ZM13.4649 30.6551C11.1787 30.6551 9.32527 28.8025 9.32527 26.5172C9.32527 24.2319 11.1787 22.3793 13.4649 22.3793C15.7512 22.3793 17.6047 24.2319 17.6047 26.5172C17.6047 28.8025 15.7512 30.6551 13.4649 30.6551Z" fill="#080808"/>
<path fill-rule="evenodd" clip-rule="evenodd" d="M67.7869 13.8129C67.7869 12.8262 68.5755 12.0264 69.5477 12.0264C70.5205 12.0264 71.3085 12.8262 71.3085 13.8129C71.3085 14.7996 70.5205 15.5996 69.5477 15.5996C68.5755 15.5996 67.7869 14.7996 67.7869 13.8129ZM67.0248 17.0468H65.8258C64.205 17.0468 63.368 18.0888 62.9027 18.698C62.7249 18.9305 62.4677 18.9116 62.4677 18.5739V17.1988C62.4677 17.1148 62.4006 17.0468 62.3178 17.0468H60.0481C59.9658 17.0468 59.8987 17.1148 59.8987 17.1988V30.5283C59.8987 30.6121 59.9658 30.6802 60.0481 30.6802H62.4721C62.5544 30.6802 62.6215 30.6121 62.6215 30.5283V22.5952C62.6215 20.5394 63.8387 19.5448 65.8277 19.5448L67.0248 19.5445C67.1076 19.5445 67.1742 19.4765 67.1742 19.3927V17.1988C67.1742 17.1148 67.1076 17.0468 67.0248 17.0468ZM70.7536 17.0468H68.3423C68.2596 17.0468 68.193 17.1148 68.193 17.1988V30.5283C68.193 30.6122 68.2596 30.6803 68.3423 30.6803H70.7536C70.8364 30.6803 70.9035 30.6122 70.9035 30.5283V17.1988C70.9035 17.1148 70.8364 17.0468 70.7536 17.0468ZM79.8285 19.1932V17.1985C79.8285 17.1147 79.7614 17.0467 79.6787 17.0467L76.9755 17.0462V15.6795C76.9755 15.3123 77.0661 15.0346 77.2527 14.8307C77.4359 14.6299 77.6867 14.5324 78.0192 14.5324H79.6968L79.6983 14.5323L79.6987 14.5322L79.7002 14.5321L79.7012 14.532H79.8334C79.9162 14.532 79.9833 14.464 79.9833 14.3802V14.2544V12.3124V12.1863C79.9833 12.1023 79.9162 12.0343 79.8334 12.0343H79.6968H79.2824H77.8326C75.4571 12.0343 74.2527 13.1122 74.2527 15.2381V17.0467H72.0467C71.9639 17.0467 71.8968 17.1147 71.8968 17.1985V19.1932C71.8968 19.277 71.9639 19.3451 72.0467 19.3451L74.2527 19.3481V29.8257V30.402V30.5282C74.2527 30.612 74.3198 30.68 74.4021 30.68H74.5387H76.7017H76.8256C76.9084 30.68 76.9755 30.612 76.9755 30.5282V30.4065V30.405V30.4042V30.402V19.3478L79.6787 19.3451C79.7614 19.3451 79.8285 19.277 79.8285 19.1932ZM52.1903 19.3932C49.7027 19.3932 48.7234 21.6148 48.7234 22.6324L55.5944 22.6329C55.5944 21.6148 54.9146 19.3932 52.1903 19.3932ZM45.8496 23.844C45.8496 21.3524 46.9828 16.8949 52.1889 16.8949C57.3773 16.8949 58.3559 21.2652 58.5023 22.9341C58.5587 23.5752 58.4916 24.723 58.4916 24.723C58.4872 24.8033 58.4215 24.8663 58.3422 24.8663L48.7219 24.8661C48.7219 27.6497 51.1206 28.2824 52.1889 28.2824C54.557 28.2824 55.2129 26.7153 55.3177 26.4648C55.3221 26.4547 55.3255 26.4467 55.328 26.4411C55.352 26.3868 55.4049 26.3529 55.4636 26.3529H58.0845C58.1546 26.3529 58.2036 26.3954 58.1869 26.4889C58.0919 26.9584 57.0996 30.7805 52.1889 30.7805C48.6478 30.7805 45.8496 28.4261 45.8496 23.844ZM110.196 22.6324C110.196 21.6148 111.176 19.3932 113.664 19.3932C116.388 19.3932 117.068 21.6148 117.068 22.6329L110.196 22.6324ZM119.978 22.9341C119.831 21.2652 118.853 16.8949 113.664 16.8949C108.458 16.8949 107.325 21.3524 107.325 23.844C107.325 28.4261 110.123 30.7805 113.664 30.7805C118.575 30.7805 119.567 26.9584 119.662 26.4889C119.679 26.3954 119.63 26.3529 119.56 26.3529H116.939C116.88 26.3529 116.827 26.3868 116.803 26.4411L116.798 26.4529L116.793 26.4648C116.688 26.7154 116.032 28.2824 113.664 28.2824C112.595 28.2824 110.197 27.6497 110.197 24.8661L119.817 24.8663C119.897 24.8663 119.962 24.8033 119.967 24.723C119.967 24.723 120.034 23.5752 119.978 22.9341ZM90.007 24.104C90.0075 24.0972 90.0075 24.0903 90.008 24.0834C90.0104 24.0044 90.0119 23.9247 90.0119 23.8439C90.0119 23.7647 90.0104 23.6865 90.008 23.6091C90.007 23.5766 90.005 23.5446 90.0036 23.5125L90.0031 23.5015L90.0021 23.4823L90.0006 23.4479C89.9996 23.4253 89.9987 23.4026 89.9972 23.3804C89.9938 23.3321 89.9898 23.2845 89.9854 23.2367L89.9835 23.2086C89.982 23.1902 89.9805 23.1715 89.9786 23.1534C89.9742 23.1107 89.9693 23.0687 89.9644 23.0265L89.9639 23.0238C89.96 22.9902 89.956 22.9566 89.9521 22.9235C89.9492 22.9029 89.9458 22.8824 89.9428 22.8619L89.9379 22.8295C89.9306 22.7812 89.9232 22.7328 89.9149 22.6853C89.913 22.673 89.9105 22.6608 89.908 22.6484C89.7611 21.8506 89.4584 21.1684 89.0024 20.6119C88.5063 20.0068 87.8671 19.6251 87.0956 19.471L87.0883 19.4695L87.0844 19.4689C87.0805 19.4682 87.077 19.4675 87.0731 19.4668C87.0187 19.4562 86.9639 19.4469 86.908 19.4385L86.8938 19.4366L86.8796 19.4347L86.8596 19.4322L86.836 19.4292C86.7934 19.4237 86.7503 19.4182 86.7072 19.414C86.6754 19.4109 86.6431 19.4087 86.6107 19.4064L86.5867 19.4048L86.5588 19.4027C86.5373 19.4011 86.5162 19.3995 86.4942 19.3984C86.4212 19.395 86.3467 19.3929 86.2713 19.3929C86.1964 19.3929 86.1234 19.395 86.0514 19.3983C86.0103 19.4002 85.9706 19.4034 85.9304 19.4066L85.9177 19.4076C85.9138 19.408 85.9098 19.4083 85.9059 19.4086C85.8991 19.4091 85.8927 19.4096 85.8858 19.41C85.8726 19.411 85.8589 19.412 85.8457 19.4132C84.9009 19.5047 84.1285 19.9087 83.5461 20.6182C83.0019 21.2815 82.6747 22.1174 82.5689 23.1094L82.5675 23.122L82.566 23.1331C82.5601 23.1911 82.5557 23.2501 82.5513 23.309C82.5508 23.3148 82.5503 23.3206 82.5498 23.3263C82.5494 23.331 82.5489 23.3357 82.5484 23.3405V23.3413C82.5479 23.3514 82.5469 23.3616 82.5459 23.3719C82.5425 23.4258 82.5401 23.4806 82.5381 23.5354C82.5376 23.545 82.5371 23.5546 82.5366 23.5642V23.5651V23.5661C82.5356 23.5796 82.5351 23.5931 82.5347 23.6067C82.5322 23.685 82.5307 23.7639 82.5307 23.8439C82.5307 23.9254 82.5322 24.0059 82.5347 24.0856C82.5347 24.0896 82.5352 24.0936 82.5352 24.0975C82.5356 24.1014 82.5356 24.1053 82.5356 24.1091C82.5792 25.3087 82.9182 26.3016 83.5461 27.0631C84.1294 27.7709 84.9043 28.1733 85.853 28.263C85.8555 28.2633 85.8574 28.2633 85.8599 28.2634C85.9236 28.2695 85.9882 28.274 86.0534 28.277C86.1249 28.2803 86.1974 28.2823 86.2713 28.2823C86.3463 28.2823 86.4197 28.2803 86.4922 28.277C86.5334 28.2751 86.5735 28.2719 86.6137 28.2687L86.6274 28.2676C86.6514 28.2658 86.6754 28.2645 86.6989 28.2623C87.6506 28.1718 88.424 27.7717 89.0024 27.0695C89.5823 26.3655 89.9144 25.4572 89.9928 24.3646L89.9943 24.3478C89.9952 24.3394 89.9957 24.3311 89.9962 24.3226C90.0001 24.2645 90.0026 24.2054 90.005 24.1461C90.0055 24.1373 90.006 24.1285 90.0065 24.1198L90.007 24.104ZM92.7288 23.4865C92.7327 23.6041 92.7351 23.7228 92.7351 23.8439C92.7351 23.965 92.7327 24.0838 92.7288 24.2014L92.7283 24.2321L92.7278 24.2435C92.647 26.4434 91.901 28.0251 90.8039 29.081C89.7352 30.145 88.3187 30.7133 86.5853 30.7741C86.4809 30.7783 86.3766 30.7804 86.2718 30.7804C86.1675 30.7804 86.0636 30.7783 85.9598 30.7741C84.0991 30.7103 82.6081 30.0715 81.5252 28.871C81.4914 28.8334 81.4586 28.7947 81.4263 28.7559L81.3998 28.7245C81.3915 28.7148 81.3832 28.7051 81.3748 28.6954C81.366 28.6849 81.3572 28.6744 81.3484 28.6639C81.3351 28.6486 81.3219 28.6333 81.3097 28.6178C80.5069 27.6487 79.9608 26.3295 79.8359 24.6116C79.8354 24.6063 79.8354 24.6011 79.8349 24.5958C79.8266 24.4808 79.8202 24.3642 79.8158 24.2458L79.8143 24.198C79.8109 24.0816 79.808 23.9639 79.808 23.8439C79.808 23.7251 79.8104 23.6086 79.8143 23.4931C79.8148 23.4737 79.8153 23.454 79.8163 23.4346C79.8202 23.3236 79.8261 23.2143 79.8339 23.1064C79.8344 23.093 79.8359 23.0796 79.8369 23.0662L79.8383 23.0458C79.8467 22.9355 79.8565 22.8265 79.8682 22.7195C79.8692 22.7092 79.8707 22.6988 79.8716 22.6885C79.8844 22.5798 79.8981 22.4727 79.9143 22.3673C79.9147 22.3637 79.9152 22.36 79.9157 22.3564C79.9162 22.3525 79.9167 22.3487 79.9172 22.3449C79.9338 22.2368 79.9525 22.1308 79.9725 22.026L79.9809 21.9839C80.001 21.8805 80.0235 21.7786 80.0475 21.6786L80.0519 21.6595L80.0563 21.6405C80.0818 21.5379 80.1082 21.4369 80.1366 21.3378L80.1386 21.3314C80.14 21.3263 80.1415 21.3213 80.143 21.3161C80.2032 21.1101 80.2703 20.912 80.3453 20.7216C80.3497 20.7103 80.3536 20.6987 80.3585 20.6873C80.3918 20.6032 80.4271 20.5208 80.4633 20.4396C80.4741 20.4154 80.4849 20.3909 80.4956 20.3668C80.5275 20.2986 80.5598 20.2318 80.5931 20.166C80.6132 20.1252 80.6343 20.0848 80.6553 20.0448C80.6587 20.0383 80.6627 20.0319 80.6661 20.0254C80.9036 19.5792 81.1897 19.169 81.5257 18.7978C82.6086 17.6009 84.1005 16.9643 85.9618 16.9011C86.0651 16.8968 86.1685 16.8947 86.2718 16.8947C86.3761 16.8947 86.4805 16.897 86.5848 16.9012C88.3231 16.9622 89.743 17.5358 90.8132 18.6095C91.9054 19.6682 92.6475 21.2503 92.7278 23.4443C92.7283 23.4584 92.7283 23.4724 92.7288 23.4865ZM100.671 16.8964C98.9795 16.8947 97.6488 18.0607 97.1698 18.7273C97.0052 18.9558 96.6942 18.9225 96.6942 18.5414V17.1986C96.6942 17.1145 96.6271 17.0465 96.5443 17.0465H94.2751C94.1923 17.0465 94.1252 17.1145 94.1252 17.1986V30.528C94.1252 30.6121 94.1923 30.68 94.2751 30.68H96.6986C96.7813 30.68 96.8485 30.6121 96.8485 30.528V22.611C96.8485 21.0751 97.7683 19.3928 100.054 19.3928C102.679 19.3928 103.285 21.4357 103.285 22.5161V30.528C103.285 30.6121 103.352 30.68 103.435 30.68H105.859C105.941 30.68 106.008 30.6121 106.008 30.528V22.8542C106.008 19.5776 104.253 16.9 100.671 16.8964ZM43.2184 17.0468H45.9841C46.0526 17.0468 46.1009 17.1148 46.0795 17.1805L41.866 30.5767C41.8455 30.6385 41.7883 30.6802 41.724 30.6802H37.3457C37.2816 30.6802 37.2246 30.6387 37.2039 30.5772L32.988 17.1805C32.9666 17.1148 33.0149 17.0468 33.0834 17.0468H35.8412C35.8992 17.0468 35.9504 17.0853 35.9669 17.1418L39.2815 28.0298C39.3646 28.28 39.7135 28.2797 39.7962 28.0295L43.0928 17.142C43.1093 17.0855 43.1605 17.0468 43.2184 17.0468Z" fill="#080808"/>
</g>
</g>
<defs>
<clipPath id="clip0_11339_7342">
<rect width="120" height="30.4688" fill="white" transform="translate(0 0.362305)"/>
</clipPath>
<clipPath id="clip1_11339_7342">
<rect width="120" height="30.4688" fill="white" transform="translate(0 0.362305)"/>
</clipPath>
</defs>
</svg>
