<svg width="110" height="32" viewBox="0 0 110 32" fill="none" xmlns="http://www.w3.org/2000/svg">
<g clip-path="url(#clip0_11733_5842)">
<g clip-path="url(#clip1_11733_5842)">
<path d="M44.5573 20.1192V20.4105H45.0322C46.2545 20.4105 46.2671 20.4231 46.2671 21.8164V28.4594L39.6747 20.1192H36.1854V20.4105H37.5406L37.8256 20.6131V29.3397C37.8256 30.3402 37.8256 30.4226 37.7749 30.6126C37.6736 31.0368 37.4709 31.1382 36.7427 31.1382H36.1854V31.4231H39.8647V31.1382H39.3898C38.1675 31.1382 38.0979 31.0368 38.0979 29.3397V20.9171L46.4381 31.5118H46.5394V21.8164C46.5394 20.8791 46.93 20.4105 47.711 20.4105H48.1859V20.1192H44.5573ZM63.2832 27.6995V28.4278C63.2832 29.612 62.9413 30.3212 62.194 30.6949C61.5861 31.0178 60.5538 31.1382 58.5337 31.1382H56.8428V20.4105H58.7237V20.1192H53.5498V20.4105H55.1963V31.1382H53.5498V31.4231H63.5682V27.6995H63.2832ZM26.7432 20.1382V20.4295H27.5538C28.5354 20.4421 28.7064 20.6448 28.6937 21.829L28.6494 27.6615C28.6367 28.9344 28.4974 29.5107 28.0351 30.1123C27.3892 30.9545 26.4013 31.3725 25.0461 31.3598C23.8745 31.3598 22.9816 31.0432 22.3736 30.4226C21.867 29.9096 21.772 29.4853 21.7847 27.9655L21.8417 20.3851L23.6085 20.4041V20.1128L18.5233 20.0748V20.3598L20.1635 20.3725L20.1065 27.8641C20.0938 29.4093 20.1888 29.8336 20.6448 30.3592C21.3857 31.2332 22.6523 31.6448 24.6344 31.6638C26.091 31.6765 27.0599 31.4105 27.7945 30.8089C28.5987 30.1376 28.928 29.2257 28.9407 27.6108L28.985 21.8353C28.9914 20.6828 29.1623 20.4485 29.9476 20.4548H30.6379V20.1698L26.7432 20.1382ZM92.7496 20.5941C91.9136 20.2395 91.1727 20.1192 89.7985 20.1192H85.0869V20.4105H86.7335V31.1382H85.0869V31.4231H90.1215V31.1382H88.3926V26.1226C88.9816 26.3569 89.4755 26.4456 90.2228 26.4456C92.8636 26.4456 94.6621 25.1347 94.6621 23.2412C94.6621 22.019 94.0161 21.1197 92.7496 20.5941ZM92.3063 25.2044C91.7617 25.8187 90.8814 26.1543 89.8808 26.1543C89.2729 26.1543 88.8803 26.072 88.3926 25.7997V20.4105C88.7156 20.3725 88.8802 20.3725 89.1019 20.3725C90.1215 20.3725 91.0334 20.5308 91.5273 20.7841C92.4393 21.2591 92.9016 22.152 92.9016 23.4439C92.9016 24.2228 92.7116 24.7674 92.3063 25.2044ZM62.1433 11.1837L56.6845 4.74324L59.1416 2.52677C59.9522 1.77951 60.8895 1.07024 61.4974 0.709269C61.833 0.525619 62.1244 0.455959 62.5803 0.455959H63.4796V0.170984H58.6477V0.455959H59.5153C60.1232 0.455959 60.3132 0.525619 60.3132 0.759931C60.3132 0.981578 60.0219 1.37421 59.4646 1.86183L55.2406 5.66149V0.455959H56.9378V0.170984H51.9539V0.455959H53.6005V11.1837H51.9539V11.475H57.0201V11.1837H55.2406V6.03512L55.4496 5.84514L59.8509 11.1837H58.2614V11.475H63.7709V11.1837H62.1433ZM95.821 11.1203C95.498 11.2216 95.346 11.2533 95.1434 11.2533C94.6177 11.2533 94.3771 10.8987 94.2948 9.96776L94.1744 8.74554C94.0098 6.52274 93.3448 5.86413 91.0904 5.57283C92.1416 5.45884 92.6989 5.30685 93.2435 5.00288C94.0225 4.54059 94.4847 3.76166 94.4847 2.88141C94.4847 2.2228 94.2631 1.60852 93.8198 1.13356C93.2245 0.474957 92.3126 0.170984 90.9067 0.170984H85.0426V0.455959H86.6828V11.1837H85.0426V11.475H90.0898V11.1837H88.3483V5.71215H89.0069C89.9378 5.71215 90.7547 5.83247 91.179 6.01612C91.8376 6.32009 92.1226 6.77605 92.2303 7.74496L92.4139 9.35348C92.5152 10.3541 92.5976 10.5757 92.9712 10.9683C93.3638 11.4053 93.8388 11.5953 94.5861 11.5953C95.0927 11.5953 95.498 11.5256 95.9223 11.3546L95.821 11.1203ZM88.3483 5.45884V0.455959H88.9562C90.6534 0.455959 91.2107 0.557283 91.768 0.930915C92.3633 1.33621 92.7369 2.13414 92.7369 2.98273C92.7369 3.66033 92.4836 4.26828 92.0086 4.71157C91.464 5.21819 90.5141 5.45884 89.0069 5.45884H88.3483ZM78.5009 22.0697C77.5193 20.7841 75.8728 19.8849 74.5176 19.8849C73.2637 19.8849 71.9908 20.4611 70.9079 21.525C69.7743 22.6269 69.1664 24.0835 69.1664 25.73C69.1664 27.0029 69.5527 28.2378 70.2493 29.2573C71.2499 30.6822 72.928 31.6258 74.4479 31.6258C75.7018 31.6258 77.0633 30.9989 78.0639 29.9666C79.1468 28.852 79.7231 27.3892 79.7231 25.7997C79.7231 24.4254 79.2798 23.0892 78.5009 22.0697ZM74.4352 31.3725C72.1618 31.3725 71.0472 29.4917 71.0472 25.6983C71.0472 22.1393 72.2504 20.1382 74.3846 20.1382C76.639 20.1382 77.8423 22.0697 77.8423 25.73C77.8423 29.3903 76.7024 31.3725 74.4352 31.3725ZM9.27749 20.3915C8.4289 20.1572 8.10593 20.1192 6.10478 20.1192H1.93782V20.4105H3.58434V31.1382H1.93782V31.4231H6.37709C8.46056 31.4231 9.32815 31.2902 10.3097 30.7835C12.1082 29.8843 13.1911 28.0035 13.1911 25.7997C13.1911 23.1906 11.6839 21.1008 9.27749 20.3915ZM10.4427 29.4917C9.85377 30.3719 8.66321 30.9672 7.24467 31.0875C6.70006 31.1382 6.40875 31.1382 5.25619 31.1382V20.4105C6.97237 20.4105 7.40933 20.4421 8.12493 20.6321C10.2401 21.2084 11.342 22.9372 11.342 25.6793C11.342 27.3385 11.038 28.6304 10.4427 29.4917ZM29.099 11.1837L24.8307 0H24.6091L21.0501 9.8981C20.6448 11.0317 20.4928 11.1837 19.7962 11.1837H19.2579V11.475H22.8169V11.1837H22.2913C21.4934 11.1837 21.1514 11.0317 21.1514 10.7087C21.1514 10.5947 21.2401 10.3034 21.3541 9.92976L22.133 7.77663H26.0023L27.2879 11.1837H25.6097V11.475H30.5429V11.1837H29.099ZM22.2406 7.51065L24.0012 2.47611L25.901 7.51065H22.2406ZM79.0645 8.15026V8.7962C79.0645 9.69545 78.6528 10.3224 77.7916 10.7467C77.1456 11.0697 76.2971 11.1837 74.6062 11.1837H72.4847V5.84514H73.1307C73.9413 5.84514 74.5366 5.8958 74.8405 5.96546C75.4358 6.13644 75.7588 6.5734 75.7588 7.21934V7.81462H76.0438V3.55901H75.7588V4.08463C75.7588 4.57858 75.4548 5.1042 75.0432 5.30685C74.7075 5.4905 73.9793 5.59183 73.1497 5.59183H72.4847V0.455959H74.4162C75.9804 0.455959 76.8923 0.595279 77.4496 0.91825C78.0766 1.27288 78.2666 1.62752 78.4882 2.93207H78.7415L78.4882 0.170984H69.179V0.455959H70.8256V11.1837H69.179V11.475H79.3495V8.15026H79.0645ZM45.9568 7.74496V8.47323C45.9568 9.65746 45.6212 10.3731 44.8739 10.7467C44.266 11.0697 43.2337 11.1837 41.2136 11.1837H39.5164V0.455959H41.4036V0.170984H36.2297V0.455959H37.8762V11.1837H36.2297V11.475H46.2481V7.74496H45.9568ZM16.9655 0.158319V0.379965H15.5533L11.494 11.5573H11.1013L8.4479 4.14796L5.75648 11.5573H5.36385L2.66609 4.03397H2.65976L1.90616 2.01382L1.31721 0.379965H0V0.158319H4.70524V0.379965H2.99539L6.2251 9.47381H6.25676L8.30858 3.79965L7.64997 2.01382H7.64364L7.05469 0.379965H5.73748V0.158319H10.4427V0.379965H8.73287L11.9626 9.47381H11.9942L15.2873 0.379965H13.6091V0.158319H16.9655Z" fill="#080808"/>
<path d="M105.592 5.57333V5.55434L105.345 5.28203C104.94 4.85773 104.598 4.38911 104.617 3.7685C104.617 2.9769 105.2 2.08398 106.454 2.08398C107.574 2.08398 108.208 2.81858 108.208 3.68617C108.208 4.61076 107.27 5.30736 106.669 5.68099L108.385 7.39717C108.657 6.84622 108.803 6.21294 108.803 5.548C108.803 5.32002 108.885 5.30736 109.044 5.30736H109.291C109.506 5.30736 109.487 5.46568 109.487 5.548C109.487 6.34593 109.259 7.20085 108.873 7.88479L109.867 8.87903C109.994 9.01202 110.076 9.11968 109.854 9.35399L109.728 9.46798C109.601 9.58197 109.449 9.60097 109.291 9.43632L108.41 8.5244C107.847 9.15768 107.08 9.56297 106.143 9.56297C104.832 9.56297 104.136 8.67005 104.136 7.65048C104.136 6.52958 105.016 5.90264 105.58 5.57333H105.592ZM106.188 8.91703C106.903 8.91703 107.517 8.57506 107.961 8.03678L106.042 6.02296C105.567 6.31427 104.877 6.84622 104.877 7.66314C104.877 8.39141 105.459 8.91703 106.188 8.91703ZM107.486 3.70517C107.486 3.20488 107.099 2.69826 106.397 2.69826C105.694 2.69826 105.32 3.18588 105.32 3.7875C105.301 4.23079 105.592 4.58542 105.985 4.97172L106.213 5.1997C106.682 4.92106 107.492 4.45244 107.492 3.70517H107.486Z" fill="#080808"/>
<path d="M99.0887 20.1387C100.444 20.1387 101.546 21.2469 101.546 22.5958C101.546 23.9447 100.438 25.0466 99.0887 25.0466C97.7398 25.0466 96.6379 23.9447 96.6379 22.5958C96.6379 21.2469 97.7398 20.1387 99.0887 20.1387ZM99.0887 24.5779C100.191 24.5779 101.071 23.6913 101.071 22.5958C101.071 21.5002 100.191 20.6136 99.0887 20.6136C97.9868 20.6136 97.1066 21.4939 97.1066 22.5958C97.1066 23.6977 97.9931 24.5779 99.0887 24.5779ZM98.2085 21.4686C98.2085 21.3989 98.2655 21.3356 98.3351 21.3356H99.3484C99.7727 21.3356 100.191 21.6205 100.191 22.1398C100.191 22.6274 99.874 22.8174 99.6713 22.8934C99.7916 23.1467 99.9183 23.4064 100.032 23.6534C100.083 23.742 100.013 23.837 99.9183 23.837H99.608C99.551 23.837 99.5067 23.7863 99.4877 23.742L99.1457 22.9378H98.7214V23.7103C98.7214 23.78 98.6644 23.8433 98.5884 23.8433H98.3351C98.2591 23.8433 98.2085 23.78 98.2085 23.7103V21.4686ZM99.3104 22.4881C99.513 22.4881 99.6523 22.3361 99.6523 22.1525C99.6523 21.9562 99.513 21.8169 99.3104 21.8169H98.7024V22.4881H99.3104Z" fill="#080808"/>
</g>
</g>
<defs>
<clipPath id="clip0_11733_5842">
<rect width="110" height="31.6638" fill="white"/>
</clipPath>
<clipPath id="clip1_11733_5842">
<rect width="110" height="31.6638" fill="white"/>
</clipPath>
</defs>
</svg>
